<?xml version="1.0" encoding="UTF-8" standalone="no"?>
<svg
   width="1630.7456pt"
   height="1387.8553pt"
   viewBox="0 0 1630.7457 1387.8554"
   version="1.2"
   id="svg455"
   sodipodi:docname="love.svg"
   inkscape:version="1.1.2 (0a00cf5339, 2022-02-04)"
   xmlns:inkscape="http://www.inkscape.org/namespaces/inkscape"
   xmlns:sodipodi="http://sodipodi.sourceforge.net/DTD/sodipodi-0.dtd"
   xmlns:xlink="http://www.w3.org/1999/xlink"
   xmlns="http://www.w3.org/2000/svg"
   xmlns:svg="http://www.w3.org/2000/svg">
  <sodipodi:namedview
     id="namedview457"
     pagecolor="#ffffff"
     bordercolor="#666666"
     borderopacity="1.0"
     inkscape:pageshadow="2"
     inkscape:pageopacity="0.0"
     inkscape:pagecheckerboard="0"
     inkscape:document-units="pt"
     showgrid="false"
     fit-margin-top="0"
     fit-margin-left="0"
     fit-margin-right="0"
     fit-margin-bottom="0"
     inkscape:zoom="0.18011793"
     inkscape:cx="1077.0721"
     inkscape:cy="1354.668"
     inkscape:window-width="1551"
     inkscape:window-height="991"
     inkscape:window-x="26"
     inkscape:window-y="23"
     inkscape:window-maximized="0"
     inkscape:current-layer="surface1968" />
  <defs
     id="defs390">
    <clipPath
       id="clip1">
      <path
         d="M 20,87 H 1647 V 1470 H 20 Z m 0,0"
         id="path2" />
    </clipPath>
    <clipPath
       id="clip2">
      <path
         d="m 833.85156,283.80859 c 0,0 -132.96875,-196.359371 -346.86719,-196.359371 -296.53906,0 -501.64062,175.796871 -460.839839,542.992191 48.085938,432.78909 807.707029,839.53129 807.707029,839.53129 0,0 759.62114,-406.7422 807.70704,-839.53129 40.8008,-367.19532 -164.3008,-542.992191 -460.8438,-542.992191 -239.36714,0 -346.86324,196.359371 -346.86324,196.359371"
         id="path5" />
    </clipPath>
    <linearGradient
       id="linear0"
       gradientUnits="userSpaceOnUse"
       x1="-0.33489099"
       y1="0"
       x2="1.158601"
       y2="0"
       gradientTransform="matrix(1062.7135,985.22211,-985.22211,1062.7135,499.16476,262.85195)">
      <stop
         offset="0"
         style="stop-color:rgb(100%,38.038635%,42.352295%);stop-opacity:1;"
         id="stop8" />
      <stop
         offset="0.125"
         style="stop-color:rgb(100%,38.038635%,42.352295%);stop-opacity:1;"
         id="stop10" />
      <stop
         offset="0.1875"
         style="stop-color:rgb(100%,38.038635%,42.352295%);stop-opacity:1;"
         id="stop12" />
      <stop
         offset="0.21875"
         style="stop-color:rgb(100%,38.038635%,42.352295%);stop-opacity:1;"
         id="stop14" />
      <stop
         offset="0.226563"
         style="stop-color:rgb(100%,38.038635%,42.352295%);stop-opacity:1;"
         id="stop16" />
      <stop
         offset="0.234375"
         style="stop-color:rgb(100%,37.646484%,41.960144%);stop-opacity:1;"
         id="stop18" />
      <stop
         offset="0.242188"
         style="stop-color:rgb(100%,37.254333%,41.960144%);stop-opacity:1;"
         id="stop20" />
      <stop
         offset="0.25"
         style="stop-color:rgb(100%,37.254333%,41.567993%);stop-opacity:1;"
         id="stop22" />
      <stop
         offset="0.257812"
         style="stop-color:rgb(100%,36.862183%,41.175842%);stop-opacity:1;"
         id="stop24" />
      <stop
         offset="0.265625"
         style="stop-color:rgb(100%,36.470032%,41.175842%);stop-opacity:1;"
         id="stop26" />
      <stop
         offset="0.273438"
         style="stop-color:rgb(100%,36.077881%,40.783691%);stop-opacity:1;"
         id="stop28" />
      <stop
         offset="0.28125"
         style="stop-color:rgb(100%,35.68573%,40.391541%);stop-opacity:1;"
         id="stop30" />
      <stop
         offset="0.289062"
         style="stop-color:rgb(100%,35.293579%,40.391541%);stop-opacity:1;"
         id="stop32" />
      <stop
         offset="0.296875"
         style="stop-color:rgb(100%,35.293579%,39.99939%);stop-opacity:1;"
         id="stop34" />
      <stop
         offset="0.304688"
         style="stop-color:rgb(100%,34.901428%,39.607239%);stop-opacity:1;"
         id="stop36" />
      <stop
         offset="0.3125"
         style="stop-color:rgb(100%,34.117126%,39.607239%);stop-opacity:1;"
         id="stop38" />
      <stop
         offset="0.320313"
         style="stop-color:rgb(100%,33.724976%,39.215088%);stop-opacity:1;"
         id="stop40" />
      <stop
         offset="0.328125"
         style="stop-color:rgb(100%,33.332825%,38.430786%);stop-opacity:1;"
         id="stop42" />
      <stop
         offset="0.335938"
         style="stop-color:rgb(100%,32.940674%,38.822937%);stop-opacity:1;"
         id="stop44" />
      <stop
         offset="0.34375"
         style="stop-color:rgb(100%,32.548523%,38.038635%);stop-opacity:1;"
         id="stop46" />
      <stop
         offset="0.351563"
         style="stop-color:rgb(100%,32.548523%,37.646484%);stop-opacity:1;"
         id="stop48" />
      <stop
         offset="0.359375"
         style="stop-color:rgb(100%,32.156372%,37.646484%);stop-opacity:1;"
         id="stop50" />
      <stop
         offset="0.367188"
         style="stop-color:rgb(100%,31.764221%,37.254333%);stop-opacity:1;"
         id="stop52" />
      <stop
         offset="0.375"
         style="stop-color:rgb(100%,31.37207%,36.862183%);stop-opacity:1;"
         id="stop54" />
      <stop
         offset="0.382813"
         style="stop-color:rgb(100%,30.979919%,36.862183%);stop-opacity:1;"
         id="stop56" />
      <stop
         offset="0.390625"
         style="stop-color:rgb(100%,30.587769%,36.470032%);stop-opacity:1;"
         id="stop58" />
      <stop
         offset="0.398438"
         style="stop-color:rgb(100%,30.195618%,36.077881%);stop-opacity:1;"
         id="stop60" />
      <stop
         offset="0.40625"
         style="stop-color:rgb(100%,30.195618%,36.077881%);stop-opacity:1;"
         id="stop62" />
      <stop
         offset="0.414062"
         style="stop-color:rgb(100%,29.803467%,35.68573%);stop-opacity:1;"
         id="stop64" />
      <stop
         offset="0.421875"
         style="stop-color:rgb(100%,29.411316%,35.293579%);stop-opacity:1;"
         id="stop66" />
      <stop
         offset="0.429688"
         style="stop-color:rgb(100%,29.019165%,35.293579%);stop-opacity:1;"
         id="stop68" />
      <stop
         offset="0.4375"
         style="stop-color:rgb(100%,28.627014%,34.901428%);stop-opacity:1;"
         id="stop70" />
      <stop
         offset="0.445313"
         style="stop-color:rgb(100%,27.842712%,34.509277%);stop-opacity:1;"
         id="stop72" />
      <stop
         offset="0.453125"
         style="stop-color:rgb(100%,27.450562%,34.509277%);stop-opacity:1;"
         id="stop74" />
      <stop
         offset="0.460938"
         style="stop-color:rgb(100%,27.450562%,34.117126%);stop-opacity:1;"
         id="stop76" />
      <stop
         offset="0.46875"
         style="stop-color:rgb(100%,27.058411%,33.724976%);stop-opacity:1;"
         id="stop78" />
      <stop
         offset="0.476562"
         style="stop-color:rgb(100%,26.66626%,33.332825%);stop-opacity:1;"
         id="stop80" />
      <stop
         offset="0.484375"
         style="stop-color:rgb(100%,26.274109%,33.332825%);stop-opacity:1;"
         id="stop82" />
      <stop
         offset="0.492188"
         style="stop-color:rgb(100%,25.881958%,32.940674%);stop-opacity:1;"
         id="stop84" />
      <stop
         offset="0.5"
         style="stop-color:rgb(100%,25.489807%,32.548523%);stop-opacity:1;"
         id="stop86" />
      <stop
         offset="0.507813"
         style="stop-color:rgb(100%,25.489807%,32.548523%);stop-opacity:1;"
         id="stop88" />
      <stop
         offset="0.515625"
         style="stop-color:rgb(100%,25.097656%,32.156372%);stop-opacity:1;"
         id="stop90" />
      <stop
         offset="0.523438"
         style="stop-color:rgb(100%,24.705505%,31.764221%);stop-opacity:1;"
         id="stop92" />
      <stop
         offset="0.53125"
         style="stop-color:rgb(100%,24.313354%,31.764221%);stop-opacity:1;"
         id="stop94" />
      <stop
         offset="0.539062"
         style="stop-color:rgb(100%,23.921204%,31.37207%);stop-opacity:1;"
         id="stop96" />
      <stop
         offset="0.546875"
         style="stop-color:rgb(100%,23.529053%,30.979919%);stop-opacity:1;"
         id="stop98" />
      <stop
         offset="0.554688"
         style="stop-color:rgb(100%,23.136902%,30.979919%);stop-opacity:1;"
         id="stop100" />
      <stop
         offset="0.5625"
         style="stop-color:rgb(100%,23.136902%,30.587769%);stop-opacity:1;"
         id="stop102" />
      <stop
         offset="0.570312"
         style="stop-color:rgb(100%,22.3526%,29.803467%);stop-opacity:1;"
         id="stop104" />
      <stop
         offset="0.578125"
         style="stop-color:rgb(100%,21.960449%,29.803467%);stop-opacity:1;"
         id="stop106" />
      <stop
         offset="0.585937"
         style="stop-color:rgb(100%,21.568298%,29.411316%);stop-opacity:1;"
         id="stop108" />
      <stop
         offset="0.59375"
         style="stop-color:rgb(100%,21.176147%,29.019165%);stop-opacity:1;"
         id="stop110" />
      <stop
         offset="0.601562"
         style="stop-color:rgb(100%,20.783997%,29.019165%);stop-opacity:1;"
         id="stop112" />
      <stop
         offset="0.609375"
         style="stop-color:rgb(100%,20.391846%,28.627014%);stop-opacity:1;"
         id="stop114" />
      <stop
         offset="0.617188"
         style="stop-color:rgb(100%,20.391846%,28.234863%);stop-opacity:1;"
         id="stop116" />
      <stop
         offset="0.625"
         style="stop-color:rgb(100%,19.999695%,28.234863%);stop-opacity:1;"
         id="stop118" />
      <stop
         offset="0.632812"
         style="stop-color:rgb(100%,19.607544%,27.842712%);stop-opacity:1;"
         id="stop120" />
      <stop
         offset="0.640625"
         style="stop-color:rgb(100%,19.215393%,27.450562%);stop-opacity:1;"
         id="stop122" />
      <stop
         offset="0.648437"
         style="stop-color:rgb(100%,18.823242%,27.450562%);stop-opacity:1;"
         id="stop124" />
      <stop
         offset="0.65625"
         style="stop-color:rgb(100%,18.03894%,27.058411%);stop-opacity:1;"
         id="stop126" />
      <stop
         offset="0.664062"
         style="stop-color:rgb(100%,17.64679%,26.66626%);stop-opacity:1;"
         id="stop128" />
      <stop
         offset="0.671875"
         style="stop-color:rgb(100%,17.64679%,26.66626%);stop-opacity:1;"
         id="stop130" />
      <stop
         offset="0.679688"
         style="stop-color:rgb(100%,17.254639%,26.274109%);stop-opacity:1;"
         id="stop132" />
      <stop
         offset="0.6875"
         style="stop-color:rgb(100%,16.862488%,25.881958%);stop-opacity:1;"
         id="stop134" />
      <stop
         offset="0.695312"
         style="stop-color:rgb(100%,16.470337%,25.881958%);stop-opacity:1;"
         id="stop136" />
      <stop
         offset="0.703125"
         style="stop-color:rgb(100%,16.078186%,25.489807%);stop-opacity:1;"
         id="stop138" />
      <stop
         offset="0.710937"
         style="stop-color:rgb(100%,15.686035%,25.097656%);stop-opacity:1;"
         id="stop140" />
      <stop
         offset="0.71875"
         style="stop-color:rgb(100%,15.686035%,25.097656%);stop-opacity:1;"
         id="stop142" />
      <stop
         offset="0.726562"
         style="stop-color:rgb(100%,15.293884%,24.705505%);stop-opacity:1;"
         id="stop144" />
      <stop
         offset="0.734375"
         style="stop-color:rgb(100%,14.509583%,23.921204%);stop-opacity:1;"
         id="stop146" />
      <stop
         offset="0.742188"
         style="stop-color:rgb(100%,14.117432%,23.529053%);stop-opacity:1;"
         id="stop148" />
      <stop
         offset="0.75"
         style="stop-color:rgb(100%,13.725281%,23.529053%);stop-opacity:1;"
         id="stop150" />
      <stop
         offset="0.757812"
         style="stop-color:rgb(100%,13.33313%,23.136902%);stop-opacity:1;"
         id="stop152" />
      <stop
         offset="0.765625"
         style="stop-color:rgb(100%,12.940979%,22.744751%);stop-opacity:1;"
         id="stop154" />
      <stop
         offset="0.773437"
         style="stop-color:rgb(100%,12.940979%,22.744751%);stop-opacity:1;"
         id="stop156" />
      <stop
         offset="0.78125"
         style="stop-color:rgb(100%,12.548828%,22.3526%);stop-opacity:1;"
         id="stop158" />
      <stop
         offset="0.789062"
         style="stop-color:rgb(100%,12.156677%,21.960449%);stop-opacity:1;"
         id="stop160" />
      <stop
         offset="0.796875"
         style="stop-color:rgb(100%,11.764526%,21.960449%);stop-opacity:1;"
         id="stop162" />
      <stop
         offset="0.804688"
         style="stop-color:rgb(100%,10.980225%,21.568298%);stop-opacity:1;"
         id="stop164" />
      <stop
         offset="0.8125"
         style="stop-color:rgb(100%,10.588074%,21.176147%);stop-opacity:1;"
         id="stop166" />
      <stop
         offset="0.820312"
         style="stop-color:rgb(100%,10.195923%,21.176147%);stop-opacity:1;"
         id="stop168" />
      <stop
         offset="0.828125"
         style="stop-color:rgb(100%,10.195923%,20.783997%);stop-opacity:1;"
         id="stop170" />
      <stop
         offset="0.835937"
         style="stop-color:rgb(100%,9.803772%,20.391846%);stop-opacity:1;"
         id="stop172" />
      <stop
         offset="0.84375"
         style="stop-color:rgb(100%,9.411621%,20.391846%);stop-opacity:1;"
         id="stop174" />
      <stop
         offset="0.851562"
         style="stop-color:rgb(100%,9.01947%,19.999695%);stop-opacity:1;"
         id="stop176" />
      <stop
         offset="0.859375"
         style="stop-color:rgb(100%,8.627319%,19.215393%);stop-opacity:1;"
         id="stop178" />
      <stop
         offset="0.867188"
         style="stop-color:rgb(100%,7.843018%,19.215393%);stop-opacity:1;"
         id="stop180" />
      <stop
         offset="0.875"
         style="stop-color:rgb(100%,7.450867%,18.823242%);stop-opacity:1;"
         id="stop182" />
      <stop
         offset="0.882812"
         style="stop-color:rgb(100%,7.450867%,18.431091%);stop-opacity:1;"
         id="stop184" />
      <stop
         offset="0.890625"
         style="stop-color:rgb(100%,7.058716%,18.431091%);stop-opacity:1;"
         id="stop186" />
      <stop
         offset="0.90625"
         style="stop-color:rgb(100%,6.666565%,18.03894%);stop-opacity:1;"
         id="stop188" />
      <stop
         offset="0.9375"
         style="stop-color:rgb(100%,6.666565%,18.03894%);stop-opacity:1;"
         id="stop190" />
      <stop
         offset="1"
         style="stop-color:rgb(100%,6.666565%,18.03894%);stop-opacity:1;"
         id="stop192" />
    </linearGradient>
    <clipPath
       id="clip3">
      <path
         d="m 543,757 h 882 v 532 H 543 Z m 0,0"
         id="path195" />
    </clipPath>
    <clipPath
       id="clip4">
      <path
         d="m 1424.418,757.98828 c -12.6992,87.70313 -78.8086,149.17188 -144.8594,212.51953 -65.7188,63.03129 -138.1914,116.32029 -202.4922,179.35159 -64.2773,63.0195 -148.07031,111.7187 -236.44921,130.3008 -60.78125,12.7812 -125.39844,10.3281 -184.60938,-8.8008 -29.64844,-9.5899 -56.71094,-23.5 -82.60156,-40.6992 -3.01953,-2.0118 -6.25781,-3.9102 -9.62891,-5.7188 -8.10937,-8.3203 -15.12109,-17.332 -20.46875,-27.2226 144.87891,68.6406 364.14844,-12.7383 486.69921,-89.0274 63.9414,-39.8008 127.7227,-87.7734 177.5703,-144.28124 11.25,-12.76172 64.7617,-95.57032 81.418,-92.92969 -2.957,-0.47266 -5.9063,-0.8125 -8.8555,-1.03906 -3.0234,-0.24219 -6.0429,-0.35157 -9.0508,-0.35157 24.8282,-17.33984 48.5899,-36.21875 71.0586,-56.55859 24.5079,-22.18359 51.8086,-47.48047 82.2696,-55.54297"
         id="path198" />
    </clipPath>
    <clipPath
       id="clip5">
      <rect
         x="0"
         y="0"
         width="48"
         height="48"
         id="rect201" />
    </clipPath>
    <g
       id="surface1972"
       clip-path="url(#clip5)">
      <path
         style="fill:#1c0c00;fill-opacity:1;fill-rule:nonzero;stroke:none"
         d="m 24,-2.402344 c 1.324219,0 2.398438,1.074219 2.398438,2.402344 0,1.324219 -1.074219,2.402344 -2.398438,2.402344 -1.324219,0 -2.398438,-1.078125 -2.398438,-2.402344 0,-1.328125 1.074219,-2.402344 2.398438,-2.402344"
         id="path204" />
      <path
         style="fill:#1c0c00;fill-opacity:1;fill-rule:nonzero;stroke:none"
         d="m 48,-2.402344 c 1.324219,0 2.398438,1.074219 2.398438,2.402344 0,1.324219 -1.074219,2.402344 -2.398438,2.402344 -1.324219,0 -2.398438,-1.078125 -2.398438,-2.402344 0,-1.328125 1.074219,-2.402344 2.398438,-2.402344"
         id="path206" />
      <path
         style="fill:#1c0c00;fill-opacity:1;fill-rule:nonzero;stroke:none"
         d="m 24,21.597656 c 1.324219,0 2.398438,1.074219 2.398438,2.402344 0,1.324219 -1.074219,2.402344 -2.398438,2.402344 -1.324219,0 -2.398438,-1.078125 -2.398438,-2.402344 0,-1.328125 1.074219,-2.402344 2.398438,-2.402344"
         id="path208" />
      <path
         style="fill:#1c0c00;fill-opacity:1;fill-rule:nonzero;stroke:none"
         d="m 48,21.597656 c 1.324219,0 2.398438,1.074219 2.398438,2.402344 0,1.324219 -1.074219,2.402344 -2.398438,2.402344 -1.324219,0 -2.398438,-1.078125 -2.398438,-2.402344 0,-1.328125 1.074219,-2.402344 2.398438,-2.402344"
         id="path210" />
      <path
         style="fill:#1c0c00;fill-opacity:1;fill-rule:nonzero;stroke:none"
         d="m 36,9.597656 c 1.324219,0 2.398438,1.074219 2.398438,2.402344 0,1.324219 -1.074219,2.402344 -2.398438,2.402344 -1.324219,0 -2.398438,-1.078125 -2.398438,-2.402344 0,-1.328125 1.074219,-2.402344 2.398438,-2.402344"
         id="path212" />
      <path
         style="fill:#1c0c00;fill-opacity:1;fill-rule:nonzero;stroke:none"
         d="m 12,9.597656 c 1.324219,0 2.398438,1.074219 2.398438,2.402344 0,1.324219 -1.074219,2.402344 -2.398438,2.402344 -1.324219,0 -2.398438,-1.078125 -2.398438,-2.402344 0,-1.328125 1.074219,-2.402344 2.398438,-2.402344"
         id="path214" />
      <path
         style="fill:#1c0c00;fill-opacity:1;fill-rule:nonzero;stroke:none"
         d="m 36,33.597656 c 1.324219,0 2.398438,1.074219 2.398438,2.402344 0,1.324219 -1.074219,2.402344 -2.398438,2.402344 -1.324219,0 -2.398438,-1.078125 -2.398438,-2.402344 0,-1.328125 1.074219,-2.402344 2.398438,-2.402344"
         id="path216" />
      <path
         style="fill:#1c0c00;fill-opacity:1;fill-rule:nonzero;stroke:none"
         d="m 12,33.597656 c 1.324219,0 2.398438,1.074219 2.398438,2.402344 0,1.324219 -1.074219,2.402344 -2.398438,2.402344 -1.324219,0 -2.398438,-1.078125 -2.398438,-2.402344 0,-1.328125 1.074219,-2.402344 2.398438,-2.402344"
         id="path218" />
      <path
         style="fill:#1c0c00;fill-opacity:1;fill-rule:nonzero;stroke:none"
         d="M 0,-2.402344 C 1.324219,-2.402344 2.398438,-1.328125 2.398438,0 2.398438,1.324219 1.324219,2.402344 0,2.402344 -1.324219,2.402344 -2.398438,1.324219 -2.398438,0 -2.398438,-1.328125 -1.324219,-2.402344 0,-2.402344"
         id="path220" />
      <path
         style="fill:#1c0c00;fill-opacity:1;fill-rule:nonzero;stroke:none"
         d="m 0,21.597656 c 1.324219,0 2.398438,1.074219 2.398438,2.402344 0,1.324219 -1.074219,2.402344 -2.398438,2.402344 -1.324219,0 -2.398438,-1.078125 -2.398438,-2.402344 0,-1.328125 1.074219,-2.402344 2.398438,-2.402344"
         id="path222" />
      <path
         style="fill:#1c0c00;fill-opacity:1;fill-rule:nonzero;stroke:none"
         d="m 24,45.597656 c 1.324219,0 2.398438,1.074219 2.398438,2.402344 0,1.324219 -1.074219,2.402344 -2.398438,2.402344 -1.324219,0 -2.398438,-1.078125 -2.398438,-2.402344 0,-1.328125 1.074219,-2.402344 2.398438,-2.402344"
         id="path224" />
      <path
         style="fill:#1c0c00;fill-opacity:1;fill-rule:nonzero;stroke:none"
         d="m 48,45.597656 c 1.324219,0 2.398438,1.074219 2.398438,2.402344 0,1.324219 -1.074219,2.402344 -2.398438,2.402344 -1.324219,0 -2.398438,-1.078125 -2.398438,-2.402344 0,-1.328125 1.074219,-2.402344 2.398438,-2.402344"
         id="path226" />
      <path
         style="fill:#1c0c00;fill-opacity:1;fill-rule:nonzero;stroke:none"
         d="m 0,45.597656 c 1.324219,0 2.398438,1.074219 2.398438,2.402344 0,1.324219 -1.074219,2.402344 -2.398438,2.402344 -1.324219,0 -2.398438,-1.078125 -2.398438,-2.402344 0,-1.328125 1.074219,-2.402344 2.398438,-2.402344"
         id="path228" />
    </g>
    <pattern
       id="pattern0"
       patternUnits="userSpaceOnUse"
       width="48"
       height="48"
       patternTransform="matrix(1,0,0,-1,-7.472,1617.39)">
      <use
         xlink:href="#surface1972"
         id="use231" />
    </pattern>
    <clipPath
       id="clip6">
      <path
         d="m 531,870 h 758 v 354 H 531 Z m 0,0"
         id="path234" />
    </clipPath>
    <clipPath
       id="clip7">
      <path
         d="m 1288.9961,871.48047 c -16.6563,-2.64063 -70.168,80.16797 -81.418,92.92969 -49.8515,56.50784 -113.6289,104.48044 -177.5703,144.27734 -122.55077,76.293 -341.8203,157.6719 -486.69921,89.0313 -8.67968,-16.0079 -13.03125,-34.3282 -10.6914,-55.7696 2.58203,-23.6914 22.99218,-42.4414 45.60156,-49.9804 22.59766,-7.5391 47.12891,-5.9805 70.82812,-3.5313 81.25,8.3828 162.88282,26.1406 243.85157,15.4336 C 1040.7383,1084.3086 1168.5078,973 1280.1406,870.4375 c 2.9492,0.23047 5.8985,0.57031 8.8555,1.04297"
         id="path237" />
    </clipPath>
    <clipPath
       id="clip8">
      <rect
         x="0"
         y="0"
         width="48"
         height="48"
         id="rect240" />
    </clipPath>
    <g
       id="surface1975"
       clip-path="url(#clip8)">
      <path
         style="fill:#1c0c00;fill-opacity:1;fill-rule:nonzero;stroke:none"
         d="m 24,-1.199219 c 0.660156,0 1.199219,0.535157 1.199219,1.199219 0,0.660156 -0.539063,1.199219 -1.199219,1.199219 -0.664062,0 -1.199219,-0.539063 -1.199219,-1.199219 0,-0.664062 0.535157,-1.199219 1.199219,-1.199219"
         id="path243" />
      <path
         style="fill:#1c0c00;fill-opacity:1;fill-rule:nonzero;stroke:none"
         d="m 48,-1.199219 c 0.660156,0 1.199219,0.535157 1.199219,1.199219 0,0.660156 -0.539063,1.199219 -1.199219,1.199219 -0.664062,0 -1.199219,-0.539063 -1.199219,-1.199219 0,-0.664062 0.535157,-1.199219 1.199219,-1.199219"
         id="path245" />
      <path
         style="fill:#1c0c00;fill-opacity:1;fill-rule:nonzero;stroke:none"
         d="m 24,22.800781 c 0.660156,0 1.199219,0.535157 1.199219,1.199219 0,0.660156 -0.539063,1.199219 -1.199219,1.199219 -0.664062,0 -1.199219,-0.539063 -1.199219,-1.199219 0,-0.664062 0.535157,-1.199219 1.199219,-1.199219"
         id="path247" />
      <path
         style="fill:#1c0c00;fill-opacity:1;fill-rule:nonzero;stroke:none"
         d="m 48,22.800781 c 0.660156,0 1.199219,0.535157 1.199219,1.199219 0,0.660156 -0.539063,1.199219 -1.199219,1.199219 -0.664062,0 -1.199219,-0.539063 -1.199219,-1.199219 0,-0.664062 0.535157,-1.199219 1.199219,-1.199219"
         id="path249" />
      <path
         style="fill:#1c0c00;fill-opacity:1;fill-rule:nonzero;stroke:none"
         d="m 36,10.800781 c 0.660156,0 1.199219,0.535157 1.199219,1.199219 0,0.660156 -0.539063,1.199219 -1.199219,1.199219 -0.664062,0 -1.199219,-0.539063 -1.199219,-1.199219 0,-0.664062 0.535157,-1.199219 1.199219,-1.199219"
         id="path251" />
      <path
         style="fill:#1c0c00;fill-opacity:1;fill-rule:nonzero;stroke:none"
         d="m 12,10.800781 c 0.660156,0 1.199219,0.535157 1.199219,1.199219 0,0.660156 -0.539063,1.199219 -1.199219,1.199219 -0.664062,0 -1.199219,-0.539063 -1.199219,-1.199219 0,-0.664062 0.535157,-1.199219 1.199219,-1.199219"
         id="path253" />
      <path
         style="fill:#1c0c00;fill-opacity:1;fill-rule:nonzero;stroke:none"
         d="m 36,34.800781 c 0.660156,0 1.199219,0.535157 1.199219,1.199219 0,0.660156 -0.539063,1.199219 -1.199219,1.199219 -0.664062,0 -1.199219,-0.539063 -1.199219,-1.199219 0,-0.664062 0.535157,-1.199219 1.199219,-1.199219"
         id="path255" />
      <path
         style="fill:#1c0c00;fill-opacity:1;fill-rule:nonzero;stroke:none"
         d="m 12,34.800781 c 0.660156,0 1.199219,0.535157 1.199219,1.199219 0,0.660156 -0.539063,1.199219 -1.199219,1.199219 -0.664062,0 -1.199219,-0.539063 -1.199219,-1.199219 0,-0.664062 0.535157,-1.199219 1.199219,-1.199219"
         id="path257" />
      <path
         style="fill:#1c0c00;fill-opacity:1;fill-rule:nonzero;stroke:none"
         d="M 0,-1.199219 C 0.660156,-1.199219 1.199219,-0.664062 1.199219,0 1.199219,0.660156 0.660156,1.199219 0,1.199219 -0.664062,1.199219 -1.199219,0.660156 -1.199219,0 -1.199219,-0.664062 -0.664062,-1.199219 0,-1.199219"
         id="path259" />
      <path
         style="fill:#1c0c00;fill-opacity:1;fill-rule:nonzero;stroke:none"
         d="m 0,22.800781 c 0.660156,0 1.199219,0.535157 1.199219,1.199219 0,0.660156 -0.539063,1.199219 -1.199219,1.199219 -0.664062,0 -1.199219,-0.539063 -1.199219,-1.199219 0,-0.664062 0.535157,-1.199219 1.199219,-1.199219"
         id="path261" />
      <path
         style="fill:#1c0c00;fill-opacity:1;fill-rule:nonzero;stroke:none"
         d="m 24,46.800781 c 0.660156,0 1.199219,0.535157 1.199219,1.199219 0,0.660156 -0.539063,1.199219 -1.199219,1.199219 -0.664062,0 -1.199219,-0.539063 -1.199219,-1.199219 0,-0.664062 0.535157,-1.199219 1.199219,-1.199219"
         id="path263" />
      <path
         style="fill:#1c0c00;fill-opacity:1;fill-rule:nonzero;stroke:none"
         d="m 48,46.800781 c 0.660156,0 1.199219,0.535157 1.199219,1.199219 0,0.660156 -0.539063,1.199219 -1.199219,1.199219 -0.664062,0 -1.199219,-0.539063 -1.199219,-1.199219 0,-0.664062 0.535157,-1.199219 1.199219,-1.199219"
         id="path265" />
      <path
         style="fill:#1c0c00;fill-opacity:1;fill-rule:nonzero;stroke:none"
         d="m 0,46.800781 c 0.660156,0 1.199219,0.535157 1.199219,1.199219 0,0.660156 -0.539063,1.199219 -1.199219,1.199219 -0.664062,0 -1.199219,-0.539063 -1.199219,-1.199219 0,-0.664062 0.535157,-1.199219 1.199219,-1.199219"
         id="path267" />
    </g>
    <pattern
       id="pattern1"
       patternUnits="userSpaceOnUse"
       width="48"
       height="48"
       patternTransform="matrix(1,0,0,-1,-7.472,1617.39)">
      <use
         xlink:href="#surface1975"
         id="use270" />
    </pattern>
    <clipPath
       id="clip9">
      <path
         d="M 0,16 H 1669.5664 V 1541 H 0 Z m 0,0"
         id="path273" />
    </clipPath>
    <clipPath
       id="clip10">
      <path
         d="m 563,755 h 922 v 615 H 563 Z m 0,0"
         id="path276" />
    </clipPath>
    <clipPath
       id="clip11">
      <path
         d="m 1480.1367,810.25 c -20.5273,64.80078 -58.8594,122.51953 -101.0898,175.78125 -118.0508,148.88675 -270.8086,270.08985 -442.63674,351.19925 -37.44141,17.6679 -77.3125,33.7695 -118.69141,32.1992 -60.12891,-2.2813 -97.42188,-36 -143.80078,-68.4492 -32.0586,-22.4297 -79.12891,-44.1992 -110.14063,-76.043 3.3711,1.8125 6.60938,3.7109 9.63282,5.7227 25.88671,17.1992 52.94921,31.1093 82.59765,40.6992 59.21094,19.1289 123.83203,21.5781 184.60938,8.8008 88.3789,-18.5821 172.17191,-67.2813 236.45311,-130.3008 64.2969,-63.0313 136.7695,-116.3203 202.4883,-179.35159 66.0508,-63.34765 132.1602,-124.82031 144.8594,-212.51953 10.0625,-2.66016 20.4609,-3.4375 31.2187,-1.60937 8.9805,1.53125 18.0938,5.26953 23.4922,12.60937 8.4805,11.51953 5.3281,27.62109 1.0078,41.26172"
         id="path279" />
    </clipPath>
    <clipPath
       id="clip12">
      <rect
         x="0"
         y="0"
         width="48"
         height="48"
         id="rect282" />
    </clipPath>
    <g
       id="surface1978"
       clip-path="url(#clip12)">
      <path
         style="fill:#1c0c00;fill-opacity:1;fill-rule:nonzero;stroke:none"
         d="m 24,-3.597656 c 1.988281,0 3.601562,1.605468 3.601562,3.597656 0,1.988281 -1.613281,3.597656 -3.601562,3.597656 -1.988281,0 -3.601562,-1.609375 -3.601562,-3.597656 0,-1.992188 1.613281,-3.597656 3.601562,-3.597656"
         id="path285" />
      <path
         style="fill:#1c0c00;fill-opacity:1;fill-rule:nonzero;stroke:none"
         d="m 48,-3.597656 c 1.988281,0 3.601562,1.605468 3.601562,3.597656 0,1.988281 -1.613281,3.597656 -3.601562,3.597656 -1.988281,0 -3.601562,-1.609375 -3.601562,-3.597656 0,-1.992188 1.613281,-3.597656 3.601562,-3.597656"
         id="path287" />
      <path
         style="fill:#1c0c00;fill-opacity:1;fill-rule:nonzero;stroke:none"
         d="m 24,20.402344 c 1.988281,0 3.601562,1.605468 3.601562,3.597656 0,1.988281 -1.613281,3.597656 -3.601562,3.597656 -1.988281,0 -3.601562,-1.609375 -3.601562,-3.597656 0,-1.992188 1.613281,-3.597656 3.601562,-3.597656"
         id="path289" />
      <path
         style="fill:#1c0c00;fill-opacity:1;fill-rule:nonzero;stroke:none"
         d="m 48,20.402344 c 1.988281,0 3.601562,1.605468 3.601562,3.597656 0,1.988281 -1.613281,3.597656 -3.601562,3.597656 -1.988281,0 -3.601562,-1.609375 -3.601562,-3.597656 0,-1.992188 1.613281,-3.597656 3.601562,-3.597656"
         id="path291" />
      <path
         style="fill:#1c0c00;fill-opacity:1;fill-rule:nonzero;stroke:none"
         d="m 36,8.402344 c 1.988281,0 3.601562,1.605468 3.601562,3.597656 0,1.988281 -1.613281,3.597656 -3.601562,3.597656 -1.988281,0 -3.601562,-1.609375 -3.601562,-3.597656 0,-1.992188 1.613281,-3.597656 3.601562,-3.597656"
         id="path293" />
      <path
         style="fill:#1c0c00;fill-opacity:1;fill-rule:nonzero;stroke:none"
         d="m 12,8.402344 c 1.988281,0 3.601562,1.605468 3.601562,3.597656 0,1.988281 -1.613281,3.597656 -3.601562,3.597656 -1.988281,0 -3.601562,-1.609375 -3.601562,-3.597656 0,-1.992188 1.613281,-3.597656 3.601562,-3.597656"
         id="path295" />
      <path
         style="fill:#1c0c00;fill-opacity:1;fill-rule:nonzero;stroke:none"
         d="m 36,32.402344 c 1.988281,0 3.601562,1.605468 3.601562,3.597656 0,1.988281 -1.613281,3.597656 -3.601562,3.597656 -1.988281,0 -3.601562,-1.609375 -3.601562,-3.597656 0,-1.992188 1.613281,-3.597656 3.601562,-3.597656"
         id="path297" />
      <path
         style="fill:#1c0c00;fill-opacity:1;fill-rule:nonzero;stroke:none"
         d="m 12,32.402344 c 1.988281,0 3.601562,1.605468 3.601562,3.597656 0,1.988281 -1.613281,3.597656 -3.601562,3.597656 -1.988281,0 -3.601562,-1.609375 -3.601562,-3.597656 0,-1.992188 1.613281,-3.597656 3.601562,-3.597656"
         id="path299" />
      <path
         style="fill:#1c0c00;fill-opacity:1;fill-rule:nonzero;stroke:none"
         d="M 0,-3.597656 C 1.988281,-3.597656 3.601562,-1.992188 3.601562,0 3.601562,1.988281 1.988281,3.597656 0,3.597656 -1.988281,3.597656 -3.601562,1.988281 -3.601562,0 -3.601562,-1.992188 -1.988281,-3.597656 0,-3.597656"
         id="path301" />
      <path
         style="fill:#1c0c00;fill-opacity:1;fill-rule:nonzero;stroke:none"
         d="m 0,20.402344 c 1.988281,0 3.601562,1.605468 3.601562,3.597656 0,1.988281 -1.613281,3.597656 -3.601562,3.597656 -1.988281,0 -3.601562,-1.609375 -3.601562,-3.597656 0,-1.992188 1.613281,-3.597656 3.601562,-3.597656"
         id="path303" />
      <path
         style="fill:#1c0c00;fill-opacity:1;fill-rule:nonzero;stroke:none"
         d="m 24,44.398438 c 1.988281,0 3.601562,1.609374 3.601562,3.601562 0,1.988281 -1.613281,3.597656 -3.601562,3.597656 -1.988281,0 -3.601562,-1.609375 -3.601562,-3.597656 0,-1.992188 1.613281,-3.601562 3.601562,-3.601562"
         id="path305" />
      <path
         style="fill:#1c0c00;fill-opacity:1;fill-rule:nonzero;stroke:none"
         d="m 48,44.398438 c 1.988281,0 3.601562,1.609374 3.601562,3.601562 0,1.988281 -1.613281,3.597656 -3.601562,3.597656 -1.988281,0 -3.601562,-1.609375 -3.601562,-3.597656 0,-1.992188 1.613281,-3.601562 3.601562,-3.601562"
         id="path307" />
      <path
         style="fill:#1c0c00;fill-opacity:1;fill-rule:nonzero;stroke:none"
         d="m 0,44.398438 c 1.988281,0 3.601562,1.609374 3.601562,3.601562 0,1.988281 -1.613281,3.597656 -3.601562,3.597656 -1.988281,0 -3.601562,-1.609375 -3.601562,-3.597656 0,-1.992188 1.613281,-3.601562 3.601562,-3.601562"
         id="path309" />
    </g>
    <pattern
       id="pattern2"
       patternUnits="userSpaceOnUse"
       width="48"
       height="48"
       patternTransform="matrix(1,0,0,-1,-7.472,1617.39)">
      <use
         xlink:href="#surface1978"
         id="use312" />
    </pattern>
    <filter
       id="alpha"
       filterUnits="objectBoundingBox"
       x="0"
       y="0"
       width="1"
       height="1">
      <feColorMatrix
         type="matrix"
         in="SourceGraphic"
         values="0 0 0 0 1 0 0 0 0 1 0 0 0 0 1 0 0 0 1 0"
         id="feColorMatrix315" />
    </filter>
    <mask
       id="mask0">
      <g
         filter="url(#alpha)"
         id="g320">
        <rect
           x="0"
           y="0"
           width="1669.5699"
           height="1628.1"
           style="fill:#000000;fill-opacity:0.75;stroke:none"
           id="rect318" />
      </g>
    </mask>
    <clipPath
       id="clip14">
      <path
         d="M 0.140625,33 H 22 V 64 H 0.140625 Z m 0,0"
         id="path323" />
    </clipPath>
    <clipPath
       id="clip15">
      <path
         d="M 154,0.519531 H 280 V 96.453125 H 154 Z m 0,0"
         id="path326" />
    </clipPath>
    <clipPath
       id="clip16">
      <path
         d="m 520,41 h 31.42187 V 64 H 520 Z m 0,0"
         id="path329" />
    </clipPath>
    <clipPath
       id="clip13">
      <rect
         x="0"
         y="0"
         width="552"
         height="97"
         id="rect332" />
    </clipPath>
    <g
       id="surface1981"
       clip-path="url(#clip13)">
      <g
         clip-path="url(#clip14)"
         clip-rule="nonzero"
         id="g337">
        <path
           style="fill:#000000;fill-opacity:1;fill-rule:nonzero;stroke:none"
           d="m 5.601562,52.136719 c 0,1.476562 0.230469,2.730469 0.6875,3.769531 0.457032,1.035156 1.085938,1.816406 1.886719,2.339844 0.796875,0.527344 1.664063,0.789062 2.609375,0.789062 0.957032,0 1.832032,-0.25 2.621094,-0.75 0.789062,-0.496094 1.421875,-1.261718 1.894531,-2.292968 0.472657,-1.027344 0.707031,-2.316407 0.707031,-3.855469 0,-1.449219 -0.234374,-2.695313 -0.707031,-3.738281 -0.472656,-1.042969 -1.109375,-1.839844 -1.914062,-2.390626 -0.804688,-0.554687 -1.683594,-0.828124 -2.640625,-0.828124 -1,0 -1.886719,0.28125 -2.671875,0.847656 -0.785157,0.5625 -1.390625,1.375 -1.824219,2.429687 -0.429688,1.058594 -0.648438,2.285157 -0.648438,3.679688 m 10.707032,7.992187 v -0.539062 c -0.730469,0.839844 -1.453125,1.519531 -2.164063,2.042968 -0.710937,0.527344 -1.480469,0.925782 -2.3125,1.199219 -0.832031,0.273438 -1.738281,0.40625 -2.722656,0.40625 -1.300781,0 -2.507813,-0.273437 -3.617187,-0.824219 C 4.382812,61.863281 3.421875,61.074219 2.613281,60.050781 1.800781,59.027344 1.1875,57.824219 0.769531,56.441406 0.351562,55.0625 0.140625,53.566406 0.140625,51.957031 c 0,-3.402343 0.832031,-6.050781 2.492187,-7.953125 1.660157,-1.902344 3.847657,-2.851562 6.558594,-2.851562 1.566406,0 2.890625,0.269531 3.964844,0.808594 1.078125,0.535156 2.125,1.363281 3.152344,2.480468 V 36.40625 c 0,-1.113281 0.222656,-1.957031 0.667968,-2.53125 0.445313,-0.570312 1.078126,-0.855469 1.902344,-0.855469 0.824219,0 1.457032,0.261719 1.902344,0.785157 0.445312,0.527343 0.667969,1.300781 0.667969,2.324218 v 24 c 0,1.035156 -0.238281,1.816406 -0.714844,2.332032 -0.480469,0.519531 -1.097656,0.777343 -1.855469,0.777343 -0.746094,0 -1.359375,-0.269531 -1.84375,-0.804687 C 16.550781,61.894531 16.308594,61.125 16.308594,60.128906"
           id="path335" />
      </g>
      <path
         style="fill:#000000;fill-opacity:1;fill-rule:nonzero;stroke:none"
         d="m 31.457031,50.421875 h 9.867188 c -0.132813,-1.859375 -0.632813,-3.253906 -1.503907,-4.175781 -0.871093,-0.925782 -2.015624,-1.386719 -3.4375,-1.386719 -1.355468,0 -2.46875,0.46875 -3.339843,1.40625 -0.871094,0.9375 -1.398438,2.320313 -1.585938,4.15625 m 10.644531,3.089844 H 31.457031 c 0.01172,1.234375 0.261719,2.324219 0.746094,3.269531 0.488281,0.945312 1.128906,1.65625 1.933594,2.132812 0.804687,0.480469 1.695312,0.71875 2.664062,0.71875 0.648438,0 1.246094,-0.07812 1.78125,-0.230468 0.539063,-0.152344 1.0625,-0.390625 1.566407,-0.71875 0.503906,-0.324219 0.972656,-0.671875 1.394531,-1.042969 0.425781,-0.375 0.980469,-0.878906 1.65625,-1.519531 0.277343,-0.238282 0.675781,-0.355469 1.195312,-0.355469 0.558594,0 1.011719,0.152344 1.355469,0.457031 0.34375,0.304688 0.519531,0.738282 0.519531,1.296875 0,0.492188 -0.195312,1.066407 -0.578125,1.722657 -0.386718,0.660156 -0.96875,1.289062 -1.746094,1.894531 -0.777343,0.605469 -1.753906,1.105469 -2.929687,1.503906 -1.175781,0.398437 -2.527344,0.597656 -4.058594,0.597656 -3.492187,0 -6.210937,-0.996093 -8.152343,-2.988281 -1.9375,-1.996094 -2.910157,-4.699219 -2.910157,-8.113281 0,-1.609375 0.238281,-3.101563 0.71875,-4.476563 0.480469,-1.375 1.175781,-2.554687 2.09375,-3.539062 0.917969,-0.980469 2.046875,-1.734375 3.386719,-2.261719 1.34375,-0.523437 2.832031,-0.785156 4.464844,-0.785156 2.128906,0 3.953125,0.449219 5.472656,1.34375 1.523438,0.898437 2.664062,2.058593 3.421875,3.480469 0.753906,1.421874 1.132813,2.871093 1.132813,4.34375 0,1.371093 -0.390626,2.257812 -1.175782,2.660156 -0.785156,0.40625 -1.886718,0.609375 -3.308594,0.609375"
         id="path339" />
      <path
         style="fill:#000000;fill-opacity:1;fill-rule:nonzero;stroke:none"
         d="m 68.695312,56.121094 c 0,1.503906 -0.367187,2.789062 -1.097656,3.859375 -0.730468,1.070312 -1.808594,1.878906 -3.238281,2.433593 -1.429687,0.550782 -3.167969,0.824219 -5.214844,0.824219 -1.953125,0 -3.625,-0.296875 -5.023437,-0.894531 -1.394532,-0.597656 -2.421875,-1.347656 -3.089844,-2.242188 -0.664062,-0.898437 -0.996094,-1.796874 -0.996094,-2.703124 0,-0.597657 0.214844,-1.109376 0.636719,-1.535157 0.425781,-0.425781 0.964844,-0.636719 1.617187,-0.636719 0.570313,0 1.007813,0.140626 1.316407,0.417969 0.304687,0.28125 0.597656,0.671875 0.875,1.175781 0.558593,0.96875 1.226562,1.695313 2.003906,2.171876 0.777344,0.480468 1.835937,0.71875 3.179687,0.71875 1.089844,0 1.984376,-0.242188 2.679688,-0.726563 0.699219,-0.484375 1.046875,-1.039063 1.046875,-1.664063 0,-0.957031 -0.359375,-1.65625 -1.085937,-2.09375 -0.722657,-0.4375 -1.917969,-0.859374 -3.578126,-1.253906 -1.871093,-0.46875 -3.398437,-0.953125 -4.574218,-1.46875 -1.175782,-0.511718 -2.117188,-1.183594 -2.820313,-2.023437 -0.703125,-0.835938 -1.058593,-1.867188 -1.058593,-3.085938 0,-1.089843 0.328124,-2.121093 0.976562,-3.089843 0.652344,-0.972657 1.613281,-1.746094 2.882812,-2.324219 1.269532,-0.578125 2.800782,-0.867188 4.59375,-0.867188 1.410157,0 2.675782,0.148438 3.796876,0.4375 1.125,0.292969 2.0625,0.683594 2.8125,1.175781 0.75,0.492188 1.320312,1.039063 1.714843,1.636719 0.390625,0.597657 0.585938,1.179688 0.585938,1.753907 0,0.625 -0.207031,1.132812 -0.628907,1.535156 -0.417968,0.398437 -1.011718,0.597656 -1.78125,0.597656 -0.558593,0 -1.035156,-0.160156 -1.425781,-0.480469 -0.390625,-0.316406 -0.839843,-0.796875 -1.34375,-1.433593 C 62.042969,45.804688 61.558594,45.378906 61,45.058594 c -0.558594,-0.316406 -1.316406,-0.476563 -2.273438,-0.476563 -0.984374,0 -1.800781,0.207031 -2.453124,0.625 -0.648438,0.421875 -0.976563,0.941407 -0.976563,1.566407 0,0.574218 0.242187,1.039062 0.71875,1.40625 0.480469,0.367187 1.125,0.667968 1.933594,0.90625 0.808593,0.238281 1.925781,0.53125 3.347656,0.878906 1.6875,0.410156 3.066406,0.902344 4.136719,1.472656 1.070312,0.574219 1.882812,1.246094 2.433594,2.023438 0.550781,0.777343 0.828124,1.664062 0.828124,2.660156"
         id="path341" />
      <path
         style="fill:#000000;fill-opacity:1;fill-rule:nonzero;stroke:none"
         d="m 78.742188,44.203125 v 15.726563 c 0,1.089843 -0.261719,1.914062 -0.777344,2.472656 -0.519532,0.558594 -1.179688,0.835937 -1.972656,0.835937 -0.796876,0 -1.445313,-0.285156 -1.945313,-0.855469 -0.5,-0.570312 -0.746094,-1.390624 -0.746094,-2.453124 V 44.363281 c 0,-1.078125 0.246094,-1.886719 0.746094,-2.433593 0.5,-0.542969 1.148437,-0.816407 1.945313,-0.816407 0.792968,0 1.453124,0.273438 1.972656,0.816407 0.515625,0.546874 0.777344,1.300781 0.777344,2.273437 m -2.691407,-5.621094 c -0.757812,0 -1.40625,-0.234375 -1.945312,-0.699219 -0.539063,-0.464843 -0.804688,-1.121093 -0.804688,-1.972656 0,-0.769531 0.273438,-1.40625 0.828125,-1.902344 0.546875,-0.5 1.191406,-0.75 1.921875,-0.75 0.703125,0 1.328125,0.226563 1.875,0.679688 0.542969,0.453125 0.816407,1.109375 0.816407,1.972656 0,0.835938 -0.265626,1.492188 -0.796876,1.964844 -0.53125,0.472656 -1.164062,0.707031 -1.894531,0.707031"
         id="path343" />
      <path
         style="fill:#000000;fill-opacity:1;fill-rule:nonzero;stroke:none"
         d="m 88.609375,51.996094 c 0,2.207031 0.480469,3.875 1.445313,5.003906 0.964843,1.128906 2.207031,1.695312 3.738281,1.695312 0.902343,0 1.753906,-0.242187 2.558593,-0.726562 0.804688,-0.488281 1.460938,-1.21875 1.964844,-2.195312 0.503906,-0.976563 0.757813,-2.164063 0.757813,-3.554688 0,-2.222656 -0.488281,-3.949219 -1.464844,-5.1875 -0.976563,-1.234375 -2.261719,-1.851562 -3.859375,-1.851562 -1.554688,0 -2.800781,0.589843 -3.734375,1.773437 -0.9375,1.183594 -1.40625,2.863281 -1.40625,5.042969 M 104.375,45.101562 V 60.90625 c 0,1.808594 -0.19141,3.363281 -0.57812,4.664062 -0.38282,1.304688 -1.00391,2.378907 -1.85157,3.230469 -0.85156,0.851563 -1.964841,1.480469 -3.339841,1.894531 -1.375,0.410157 -3.085938,0.617188 -5.132813,0.617188 -1.875,0 -3.546875,-0.261719 -5.023437,-0.789062 C 86.972656,70 85.835938,69.320312 85.039062,68.492188 84.242188,67.660156 83.84375,66.808594 83.84375,65.933594 c 0,-0.667969 0.226562,-1.207032 0.679688,-1.625 0.449218,-0.421875 0.996093,-0.628906 1.632812,-0.628906 0.796875,0 1.496094,0.351562 2.09375,1.054687 0.292969,0.359375 0.59375,0.722656 0.90625,1.085937 0.3125,0.367188 0.660156,0.679688 1.039062,0.9375 0.378907,0.261719 0.832032,0.453126 1.363282,0.578126 0.53125,0.128906 1.144531,0.1875 1.835937,0.1875 1.40625,0 2.5,-0.195313 3.277344,-0.585938 0.777344,-0.390625 1.324219,-0.941406 1.636719,-1.644531 0.308594,-0.703125 0.492187,-1.460938 0.546875,-2.261719 0.05078,-0.804688 0.09375,-2.097656 0.121093,-3.878906 -0.839843,1.171875 -1.808593,2.0625 -2.902343,2.671875 -1.09375,0.609375 -2.402344,0.917969 -3.917969,0.917969 -1.820312,0 -3.410156,-0.464844 -4.773438,-1.394532 -1.363281,-0.933594 -2.410156,-2.234375 -3.140624,-3.910156 -0.730469,-1.671875 -1.09375,-3.605469 -1.09375,-5.800781 0,-1.632813 0.21875,-3.109375 0.667968,-4.421875 0.445313,-1.316406 1.078125,-2.425782 1.902344,-3.332032 0.824219,-0.902343 1.773438,-1.582031 2.851562,-2.042968 1.074219,-0.457032 2.257813,-0.6875 3.546876,-0.6875 1.542968,0 2.878906,0.296875 4.007812,0.886718 1.128906,0.59375 2.179688,1.519532 3.148438,2.78125 v -0.738281 c 0,-0.941406 0.230468,-1.671875 0.699218,-2.191406 0.464844,-0.519531 1.062504,-0.777344 1.792974,-0.777344 1.05078,0 1.74609,0.339844 2.09375,1.027344 0.34375,0.683594 0.51562,1.667969 0.51562,2.960937"
         id="path345" />
      <path
         style="fill:#000000;fill-opacity:1;fill-rule:nonzero;stroke:none"
         d="m 114.82031,44.121094 v 0.660156 c 0.96094,-1.261719 2.00391,-2.1875 3.14063,-2.78125 1.13672,-0.589844 2.4414,-0.886719 3.91797,-0.886719 1.43359,0 2.71484,0.3125 3.84765,0.9375 1.12891,0.625 1.97266,1.507813 2.53125,2.648438 0.35938,0.667969 0.58985,1.382812 0.69531,2.152343 0.10938,0.773438 0.16016,1.757813 0.16016,2.953126 v 10.125 c 0,1.089843 -0.24609,1.914062 -0.74609,2.472656 -0.5,0.558594 -1.14844,0.835937 -1.94141,0.835937 -0.8125,0 -1.46875,-0.285156 -1.97656,-0.855469 -0.50391,-0.570312 -0.75781,-1.390624 -0.75781,-2.453124 v -9.070313 c 0,-1.792969 -0.25,-3.164063 -0.7461,-4.117187 -0.5,-0.949219 -1.49218,-1.421876 -2.98047,-1.421876 -0.96875,0 -1.85156,0.289063 -2.64843,0.867188 -0.80078,0.578125 -1.38672,1.371094 -1.75782,2.378906 -0.26562,0.8125 -0.39843,2.328125 -0.39843,4.546875 v 6.816407 c 0,1.105468 -0.25391,1.929687 -0.76563,2.484374 -0.51172,0.550782 -1.17578,0.824219 -1.98437,0.824219 -0.78516,0 -1.42969,-0.285156 -1.9336,-0.855469 -0.50781,-0.570312 -0.75781,-1.390624 -0.75781,-2.453124 V 44.203125 c 0,-1.039063 0.22656,-1.808594 0.67578,-2.320313 0.45313,-0.515624 1.07031,-0.769531 1.85547,-0.769531 0.48047,0 0.91016,0.113281 1.29688,0.339844 0.38281,0.226563 0.69531,0.566406 0.92578,1.015625 0.23437,0.453125 0.34765,1.003906 0.34765,1.652344"
         id="path347" />
      <path
         style="fill:#000000;fill-opacity:1;fill-rule:nonzero;stroke:none"
         d="m 139.08203,50.421875 h 9.86719 c -0.13281,-1.859375 -0.63281,-3.253906 -1.50391,-4.175781 -0.87109,-0.925782 -2.01562,-1.386719 -3.4414,-1.386719 -1.35157,0 -2.46485,0.46875 -3.33594,1.40625 -0.8711,0.9375 -1.39844,2.320313 -1.58594,4.15625 m 10.64453,3.089844 h -10.64453 c 0.0117,1.234375 0.26172,2.324219 0.74609,3.269531 0.48829,0.945312 1.13282,1.65625 1.9375,2.132812 0.80079,0.480469 1.6875,0.71875 2.66016,0.71875 0.65234,0 1.24609,-0.07812 1.78125,-0.230468 0.53906,-0.152344 1.0625,-0.390625 1.56641,-0.71875 0.5039,-0.324219 0.96875,-0.671875 1.39453,-1.042969 0.42578,-0.375 0.97656,-0.878906 1.65625,-1.519531 0.27734,-0.238282 0.67578,-0.355469 1.19531,-0.355469 0.55859,0 1.01172,0.152344 1.35547,0.457031 0.34375,0.304688 0.51953,0.738282 0.51953,1.296875 0,0.492188 -0.19531,1.066407 -0.57812,1.722657 -0.38672,0.660156 -0.96875,1.289062 -1.7461,1.894531 -0.77734,0.605469 -1.7539,1.105469 -2.92969,1.503906 -1.17578,0.398437 -2.52734,0.597656 -4.05468,0.597656 -3.4961,0 -6.21485,-0.996093 -8.15625,-2.988281 -1.9375,-1.996094 -2.90625,-4.699219 -2.90625,-8.113281 0,-1.609375 0.23437,-3.101563 0.71484,-4.476563 0.47656,-1.375 1.17578,-2.554687 2.09375,-3.539062 0.91797,-0.980469 2.04688,-1.734375 3.38672,-2.261719 1.34375,-0.523437 2.83203,-0.785156 4.46484,-0.785156 2.12891,0 3.95313,0.449219 5.47266,1.34375 1.52344,0.898437 2.66406,2.058593 3.42187,3.480469 0.75391,1.421874 1.13282,2.871093 1.13282,4.34375 0,1.371093 -0.39063,2.257812 -1.17578,2.660156 -0.78125,0.40625 -1.88672,0.609375 -3.3086,0.609375"
         id="path349" />
      <path
         style="fill:#000000;fill-opacity:1;fill-rule:nonzero;stroke:none"
         d="m 163.00391,52.136719 c 0,1.476562 0.22656,2.730469 0.6875,3.769531 0.46093,1.035156 1.08593,1.816406 1.88281,2.339844 0.79687,0.527344 1.66797,0.789062 2.61328,0.789062 0.95703,0 1.82812,-0.25 2.62109,-0.75 0.78907,-0.496094 1.42188,-1.261718 1.89453,-2.292968 0.46875,-1.027344 0.70704,-2.316407 0.70704,-3.855469 0,-1.449219 -0.23829,-2.695313 -0.70704,-3.738281 -0.47265,-1.042969 -1.10937,-1.839844 -1.91406,-2.390626 -0.80469,-0.554687 -1.6875,-0.828124 -2.64453,-0.828124 -0.99609,0 -1.88672,0.28125 -2.66797,0.847656 -0.78515,0.5625 -1.39062,1.375 -1.82422,2.429687 -0.43359,1.058594 -0.64843,2.285157 -0.64843,3.679688 m 10.70312,7.992187 v -0.539062 c -0.73047,0.839844 -1.44922,1.519531 -2.16016,2.042968 -0.71093,0.527344 -1.48437,0.925782 -2.3164,1.199219 -0.82813,0.273438 -1.73438,0.40625 -2.71875,0.40625 -1.30078,0 -2.50781,-0.273437 -3.61719,-0.824219 -1.10937,-0.550781 -2.07031,-1.339843 -2.88281,-2.363281 -0.8086,-1.023437 -1.42578,-2.226562 -1.84375,-3.609375 -0.41797,-1.378906 -0.625,-2.875 -0.625,-4.484375 0,-3.402343 0.82812,-6.050781 2.49219,-7.953125 1.66015,-1.902344 3.84375,-2.851562 6.55468,-2.851562 1.57032,0 2.89063,0.269531 3.96875,0.808594 1.07422,0.535156 2.125,1.363281 3.14844,2.480468 V 36.40625 c 0,-1.113281 0.22266,-1.957031 0.66797,-2.53125 0.44531,-0.570312 1.08203,-0.855469 1.90625,-0.855469 0.82031,0 1.45703,0.261719 1.90234,0.785157 0.44532,0.527343 0.66797,1.300781 0.66797,2.324218 v 24 c 0,1.035156 -0.23828,1.816406 -0.71875,2.332032 -0.47656,0.519531 -1.09765,0.777343 -1.85156,0.777343 -0.74609,0 -1.35938,-0.269531 -1.84766,-0.804687 -0.48437,-0.539063 -0.72656,-1.308594 -0.72656,-2.304688"
         id="path351" />
      <path
         style="fill:#000000;fill-opacity:1;fill-rule:nonzero;stroke:none"
         d="m 199.80078,52.296875 c 0,2.164063 0.49609,3.828125 1.48828,4.992187 0.98828,1.164063 2.28516,1.746094 3.89453,1.746094 1.36719,0 2.54688,-0.59375 3.53907,-1.785156 0.98828,-1.1875 1.48437,-2.894531 1.48437,-5.113281 0,-1.4375 -0.20703,-2.671875 -0.61719,-3.707031 -0.41406,-1.035157 -0.99609,-1.835938 -1.7539,-2.402344 -0.75782,-0.566406 -1.64063,-0.847656 -2.65235,-0.847656 -1.03515,0 -1.96093,0.28125 -2.76953,0.847656 -0.8125,0.566406 -1.44922,1.382812 -1.91406,2.453125 -0.46484,1.066406 -0.69922,2.339843 -0.69922,3.816406 m -0.25781,-16.167969 v 8.3125 c 1.02344,-1.0625 2.0664,-1.875 3.1289,-2.441406 1.0625,-0.5625 2.37891,-0.847656 3.94922,-0.847656 1.80469,0 3.39063,0.429687 4.75391,1.285156 1.35937,0.859375 2.41797,2.101562 3.16797,3.726562 0.75,1.628907 1.1289,3.5625 1.1289,5.792969 0,1.648438 -0.21093,3.160157 -0.6289,4.535157 -0.42188,1.375 -1.02735,2.570312 -1.82422,3.578124 -0.79688,1.011719 -1.76563,1.789063 -2.90234,2.34375 -1.13672,0.550782 -2.38672,0.824219 -3.75782,0.824219 -0.83593,0 -1.625,-0.09766 -2.36328,-0.296875 -0.73437,-0.199218 -1.36328,-0.460937 -1.88281,-0.789062 -0.51563,-0.324219 -0.96094,-0.660156 -1.32422,-1.003906 -0.36719,-0.347657 -0.84766,-0.867188 -1.44531,-1.554688 v 0.535156 c 0,1.023438 -0.2461,1.800782 -0.73828,2.324219 -0.49219,0.523437 -1.11719,0.785156 -1.875,0.785156 -0.76953,0 -1.38282,-0.261719 -1.84375,-0.785156 -0.45703,-0.523437 -0.6875,-1.300781 -0.6875,-2.324219 V 36.367188 c 0,-1.101563 0.22265,-1.933594 0.66797,-2.5 0.44531,-0.566407 1.0664,-0.847657 1.86328,-0.847657 0.83984,0 1.48437,0.269531 1.93359,0.808594 0.45313,0.535156 0.67969,1.304687 0.67969,2.300781"
         id="path353" />
      <path
         style="fill:#000000;fill-opacity:1;fill-rule:nonzero;stroke:none"
         d="m 224.51953,63.917969 0.5,-1.21875 -6.69922,-16.863281 c -0.41406,-0.96875 -0.61719,-1.671876 -0.61719,-2.109376 0,-0.464843 0.1211,-0.898437 0.35938,-1.296874 0.23828,-0.402344 0.56641,-0.71875 0.98437,-0.957032 0.41797,-0.242187 0.85547,-0.359375 1.30469,-0.359375 0.78516,0 1.37891,0.25 1.77735,0.746094 0.39843,0.5 0.75,1.214844 1.05468,2.144531 l 4.60547,13.394532 4.36719,-12.457032 c 0.34375,-1.011718 0.65625,-1.800781 0.93359,-2.375 0.28125,-0.570312 0.57813,-0.957031 0.88672,-1.15625 0.3125,-0.199218 0.75391,-0.296875 1.32813,-0.296875 0.41015,0 0.80859,0.109375 1.1875,0.328125 0.3789,0.21875 0.66797,0.515625 0.875,0.886719 0.20703,0.371094 0.30859,0.765625 0.30859,1.175781 -0.0508,0.253906 -0.13672,0.613282 -0.25781,1.078125 -0.1211,0.464844 -0.26563,0.9375 -0.44141,1.414063 l -7.09375,18.578125 c -0.61328,1.636719 -1.21094,2.917969 -1.79687,3.847656 -0.58203,0.929687 -1.35547,1.644531 -2.32032,2.144531 -0.96484,0.496094 -2.26171,0.746094 -3.89843,0.746094 -1.59375,0 -2.78907,-0.171875 -3.58594,-0.519531 -0.79688,-0.34375 -1.19531,-0.976563 -1.19531,-1.890625 0,-0.625 0.1875,-1.109375 0.5664,-1.445313 0.37891,-0.339843 0.94141,-0.511719 1.6836,-0.511719 0.29297,0 0.57812,0.04297 0.85937,0.121094 0.34375,0.08203 0.64453,0.121094 0.89453,0.121094 0.625,0 1.11719,-0.09375 1.47657,-0.28125 0.35937,-0.183594 0.67968,-0.507812 0.96875,-0.964844 0.28515,-0.460937 0.61328,-1.132812 0.98437,-2.023437"
         id="path355" />
      <g
         clip-path="url(#clip15)"
         clip-rule="nonzero"
         id="g359">
        <path
           style="fill:#000000;fill-opacity:1;fill-rule:nonzero;stroke:none"
           d="m 272.84375,81.074219 c 0.008,0.109375 0.0156,0.203125 0.0156,0.261719 l 0.004,0.06641 c -0.008,0.546875 -0.29687,0.945312 -0.85547,1.1875 -0.59765,0.261718 -1.17578,0.175781 -1.32812,0.07422 -0.34766,-0.964843 -0.5625,-1.5625 -1.10938,-2.777343 -0.62109,-1.375 -1.3164,-2.722657 -1.90234,-3.800781 0.5664,0.06641 1.14844,0.105468 1.73437,0.105468 1.35547,0 2.75,-0.207031 4.07813,-0.71875 -0.80078,3.042969 -0.69141,4.761719 -0.63672,5.601563 m -13.5625,-63.101563 c 2.70703,0 5.67969,-0.796875 8.3125,-3.316406 l 7.8125,48.242188 c -3.39453,6.183593 -9.46875,4.835937 -11.75781,4.050781 L 253.75,16.96875 c 1.48437,0.523438 3.42578,1.003906 5.53125,1.003906 M 258.27344,3.273438 c 3.15234,-0.730469 6.16406,0.539062 7.46875,1.21875 -4.56641,5.464843 -10.79688,4.15625 -13.42188,3.265624 1.65235,-2.449218 3.64844,-3.953124 5.95313,-4.484374 m 8.15625,4.179687 0.64843,3.996094 c -4.71484,6.105469 -11.43359,3.757812 -13.91015,2.582031 l -0.71875,-3.621094 c 1.25,0.339844 2.875,0.644532 4.6875,0.644532 2.92969,0 6.32422,-0.808594 9.29297,-3.601563 m 10.04297,62.042969 c -3.14454,5.917968 -9.67969,4.019531 -11.67188,3.269531 l -0.59375,-3 c 1.04297,0.257813 2.19922,0.421875 3.40625,0.421875 2.83984,0 5.94141,-0.910156 8.375,-3.695312 z M 268.28516,3.082031 267.82812,2.773438 C 267.63281,2.644531 262.98828,-0.398438 257.73047,0.800781 254.45312,1.546875 251.71484,3.75 249.58984,7.339844 l -0.24609,0.414062 1.56641,7.910156 -0.0156,0.02734 c 0.004,0 0.0117,0.0039 0.0234,0.01563 l 11.65625,58.847657 0.58594,0.269531 c 0.35156,0.164062 0.75,0.324219 1.17187,0.472656 0.38281,0.664063 1.57422,2.75 2.625,4.972656 -3.5,-0.300781 -7.96875,-0.476562 -13.47656,-0.539062 -16.08594,-0.179688 -50.17578,1.902343 -50.78516,3.613281 -0.44922,1.265625 13.10156,2.894531 12.19922,4.339844 -1.19922,1.917968 -8.40234,1.625 -25.93359,1.988281 -17.53125,0.359375 -31.58203,-0.5 -34.15625,1.445313 -2.50391,1.886718 13.37109,5.148437 37.95312,5.332031 24.57813,0.179687 33.97656,-4.429688 34.51563,-6.265625 0.42968,-1.453125 -7.4375,-2.980469 -7.25782,-4.007813 0.23829,-1.351562 16.29688,-2.921875 30.57422,-1.789062 12.32032,0.972656 26.61719,2.535156 26.38282,-0.769531 -0.043,-0.671876 -0.57422,-1.25 -1.61329,-1.734376 0.0156,-0.148437 0.0274,-0.300781 0.0312,-0.460937 v -0.105469 c 0,-0.109375 -0.008,-0.246094 -0.0195,-0.410156 -0.0625,-0.917969 -0.20312,-3.066406 1.41016,-7.488281 l -0.0703,-0.02734 c 0.83593,-0.820313 1.58984,-1.847656 2.21484,-3.136719 l 0.17578,-0.363281 z m 0,0"
           id="path357" />
      </g>
      <path
         style="fill:#000000;fill-opacity:1;fill-rule:nonzero;stroke:none"
         d="m 310.03906,56.5 c 0,0.679688 -0.19922,1.402344 -0.60547,2.171875 -0.40625,0.773437 -1.02343,1.507813 -1.85547,2.203125 -0.83203,0.699219 -1.8789,1.261719 -3.14062,1.6875 -1.26172,0.421875 -2.68359,0.636719 -4.26563,0.636719 -3.35937,0 -5.98437,-0.980469 -7.87109,-2.941407 -1.88672,-1.960937 -2.83203,-4.585937 -2.83203,-7.882812 0,-2.230469 0.42969,-4.207031 1.29687,-5.921875 0.86329,-1.714844 2.11329,-3.039063 3.7461,-3.976563 1.63281,-0.9375 3.58984,-1.40625 5.85937,-1.40625 1.41016,0 2.70313,0.207032 3.87891,0.621094 1.17578,0.410156 2.17187,0.941406 2.98828,1.59375 0.82031,0.652344 1.44531,1.34375 1.875,2.082032 0.43359,0.738281 0.64844,1.425781 0.64844,2.066406 0,0.648437 -0.24219,1.203125 -0.72656,1.652344 -0.48438,0.453124 -1.07422,0.679687 -1.76563,0.679687 -0.45312,0 -0.82812,-0.117187 -1.125,-0.351563 -0.30078,-0.230468 -0.63672,-0.605468 -1.00781,-1.125 -0.66406,-1.011718 -1.35938,-1.765624 -2.08203,-2.273437 -0.72657,-0.503906 -1.64453,-0.757813 -2.76172,-0.757813 -1.60547,0 -2.90235,0.628907 -3.88672,1.886719 -0.98438,1.253907 -1.47266,2.972657 -1.47266,5.148438 0,1.027343 0.125,1.964843 0.375,2.824219 0.25391,0.855468 0.6211,1.585937 1.09766,2.191406 0.48047,0.605468 1.05859,1.0625 1.73437,1.375 0.67579,0.3125 1.42188,0.46875 2.23047,0.46875 1.08985,0 2.02344,-0.253906 2.80469,-0.757813 0.77344,-0.503906 1.46484,-1.273437 2.05859,-2.3125 0.33204,-0.609375 0.69532,-1.089843 1.07813,-1.433593 0.38672,-0.347657 0.85937,-0.519532 1.41406,-0.519532 0.66797,0 1.21875,0.253906 1.65625,0.757813 0.4375,0.507812 0.65625,1.042969 0.65625,1.613281"
         id="path361" />
      <path
         style="fill:#000000;fill-opacity:1;fill-rule:nonzero;stroke:none"
         d="m 320.1875,55.386719 v 4.542969 c 0,1.101562 -0.25781,1.929687 -0.77734,2.480468 -0.51954,0.550782 -1.17579,0.828125 -1.97266,0.828125 -0.78516,0 -1.42969,-0.277343 -1.93359,-0.835937 C 315,61.84375 314.74609,61.019531 314.74609,59.929688 V 44.78125 c 0,-2.445312 0.88282,-3.667969 2.65235,-3.667969 0.90234,0 1.55468,0.285157 1.94922,0.855469 0.40234,0.570312 0.62109,1.414062 0.66015,2.53125 0.65235,-1.117188 1.32031,-1.960938 2.00391,-2.53125 0.68359,-0.570312 1.59765,-0.855469 2.73828,-0.855469 1.14453,0 2.25391,0.285157 3.33203,0.855469 1.07422,0.570312 1.61328,1.328125 1.61328,2.273438 0,0.664062 -0.23047,1.210937 -0.6875,1.644531 -0.45703,0.433593 -0.95312,0.648437 -1.48437,0.648437 -0.19922,0 -0.6836,-0.125 -1.44532,-0.371094 -0.76562,-0.246093 -1.4414,-0.367187 -2.02343,-0.367187 -0.79688,0 -1.44922,0.207031 -1.95313,0.628906 -0.5039,0.417969 -0.89844,1.039063 -1.17578,1.863281 -0.28125,0.824219 -0.47266,1.804688 -0.57812,2.941407 -0.10547,1.132812 -0.16016,2.519531 -0.16016,4.15625"
         id="path363" />
      <path
         style="fill:#000000;fill-opacity:1;fill-rule:nonzero;stroke:none"
         d="m 336.19531,50.421875 h 9.86719 c -0.13281,-1.859375 -0.63672,-3.253906 -1.50781,-4.175781 -0.86719,-0.925782 -2.01563,-1.386719 -3.4375,-1.386719 -1.35547,0 -2.46875,0.46875 -3.33594,1.40625 -0.87109,0.9375 -1.40234,2.320313 -1.58594,4.15625 m 10.64453,3.089844 h -10.64453 c 0.0117,1.234375 0.26172,2.324219 0.7461,3.269531 0.48437,0.945312 1.13281,1.65625 1.93359,2.132812 0.80469,0.480469 1.69141,0.71875 2.66406,0.71875 0.64844,0 1.2461,-0.07812 1.78125,-0.230468 0.53906,-0.152344 1.0625,-0.394532 1.56641,-0.71875 0.5039,-0.324219 0.96875,-0.675782 1.39453,-1.046875 0.42578,-0.371094 0.97656,-0.875 1.65625,-1.515625 0.27734,-0.238282 0.67578,-0.355469 1.19531,-0.355469 0.5586,0 1.00781,0.152344 1.35547,0.457031 0.34375,0.304688 0.51953,0.738282 0.51953,1.296875 0,0.488281 -0.19531,1.066407 -0.58203,1.722657 -0.38281,0.660156 -0.96484,1.289062 -1.74219,1.894531 -0.77734,0.605469 -1.7539,1.105469 -2.92968,1.503906 -1.17579,0.398437 -2.53125,0.597656 -4.05469,0.597656 -3.4961,0 -6.21485,-0.996093 -8.15625,-2.988281 -1.94141,-1.996094 -2.91016,-4.699219 -2.91016,-8.113281 0,-1.609375 0.23828,-3.101563 0.71875,-4.476563 0.47656,-1.375 1.17578,-2.554687 2.09375,-3.539062 0.91406,-0.980469 2.04688,-1.738282 3.38672,-2.261719 1.34375,-0.523437 2.83203,-0.789063 4.46484,-0.789063 2.12891,0 3.95313,0.449219 5.47266,1.347657 1.52344,0.898437 2.66016,2.058593 3.41797,3.480469 0.75781,1.417968 1.13672,2.867187 1.13672,4.34375 0,1.367187 -0.39063,2.253906 -1.17578,2.660156 -0.78516,0.40625 -1.88672,0.609375 -3.3086,0.609375"
         id="path365" />
      <path
         style="fill:#000000;fill-opacity:1;fill-rule:nonzero;stroke:none"
         d="m 369.30469,52.292969 c -0.79688,0.292969 -1.95703,0.605469 -3.47657,0.929687 -1.52343,0.324219 -2.57812,0.5625 -3.16015,0.71875 -0.58594,0.152344 -1.14453,0.449219 -1.67578,0.894532 -0.53125,0.445312 -0.79688,1.066406 -0.79688,1.863281 0,0.824219 0.3125,1.527343 0.9375,2.105469 0.625,0.578124 1.44141,0.867187 2.44922,0.867187 1.07813,0 2.07422,-0.234375 2.98438,-0.707031 0.91015,-0.472656 1.57812,-1.082032 2,-1.824219 0.49218,-0.824219 0.73828,-2.179687 0.73828,-4.066406 z m 0.35937,7.875 c -1.3164,1.023437 -2.58984,1.792969 -3.8164,2.304687 -1.23047,0.511719 -2.60938,0.765625 -4.13672,0.765625 -1.39453,0 -2.6211,-0.277343 -3.67578,-0.828125 -1.0586,-0.550781 -1.875,-1.296875 -2.44532,-2.242187 -0.57031,-0.941407 -0.85547,-1.964844 -0.85547,-3.066407 0,-1.492187 0.46875,-2.757812 1.41407,-3.808593 0.9414,-1.050781 2.23828,-1.753907 3.88672,-2.113281 0.34765,-0.07813 1.20312,-0.261719 2.57421,-0.539063 1.36719,-0.277344 2.53907,-0.535156 3.51563,-0.769531 0.97656,-0.230469 2.03516,-0.511719 3.17969,-0.84375 -0.0664,-1.4375 -0.35547,-2.492188 -0.86719,-3.160156 -0.51172,-0.671876 -1.57031,-1.007813 -3.17969,-1.007813 -1.38281,0 -2.42187,0.195313 -3.11719,0.578125 -0.69921,0.386719 -1.29687,0.964844 -1.79687,1.734375 -0.49609,0.769531 -0.85156,1.277344 -1.05469,1.523437 -0.20703,0.246094 -0.64844,0.371094 -1.32812,0.371094 -0.60938,0 -1.13672,-0.195312 -1.58203,-0.589844 -0.44532,-0.390624 -0.66797,-0.890624 -0.66797,-1.503906 0,-0.957031 0.33984,-1.886718 1.01562,-2.789062 0.67969,-0.90625 1.73438,-1.648438 3.17188,-2.234375 1.43359,-0.585938 3.21875,-0.878907 5.35937,-0.878907 2.39453,0 4.27344,0.285157 5.64063,0.847657 1.37109,0.566406 2.33593,1.460937 2.90234,2.683593 0.56641,1.222657 0.84766,2.84375 0.84766,4.863282 0,1.273437 -0.004,2.359375 -0.0117,3.25 -0.004,0.890625 -0.0156,1.878906 -0.0274,2.96875 0,1.023437 0.16797,2.089844 0.50782,3.199218 0.33593,1.109376 0.50781,1.824219 0.50781,2.144532 0,0.558594 -0.26172,1.066406 -0.78906,1.523437 -0.52344,0.460938 -1.11719,0.6875 -1.78125,0.6875 -0.5586,0 -1.10938,-0.261719 -1.65625,-0.785156 -0.54297,-0.527344 -1.1211,-1.289063 -1.73438,-2.285156"
         id="path367" />
      <path
         style="fill:#000000;fill-opacity:1;fill-rule:nonzero;stroke:none"
         d="m 394.96094,47.351562 -9.96875,11.144532 h 10.66797 c 0.86328,0 1.51562,0.203125 1.95312,0.605468 0.4375,0.40625 0.65625,0.929688 0.65625,1.566407 0,0.613281 -0.21484,1.109375 -0.64844,1.496093 -0.42968,0.382813 -1.08593,0.578126 -1.96093,0.578126 h -14.75391 c -1.03516,0 -1.80859,-0.226563 -2.32031,-0.679688 -0.51172,-0.449219 -0.76953,-1.070312 -0.76953,-1.855469 0,-0.460937 0.17968,-0.929687 0.53906,-1.402343 0.35937,-0.472657 1.10156,-1.339844 2.23437,-2.601563 1.19532,-1.328125 2.28125,-2.53125 3.25782,-3.609375 0.97656,-1.078125 1.88281,-2.082031 2.71875,-3.019531 0.83984,-0.9375 1.53515,-1.730469 2.08593,-2.382813 0.55078,-0.652344 0.99219,-1.207031 1.32422,-1.675781 h -8.09375 c -1.11328,0 -1.96094,-0.09766 -2.53125,-0.296875 -0.57031,-0.199219 -0.85547,-0.722656 -0.85547,-1.574219 0,-0.625 0.21485,-1.125 0.64844,-1.496093 0.42969,-0.371094 1.04688,-0.558594 1.84375,-0.558594 h 12.49609 c 1.15625,0 2.04297,0.167968 2.66407,0.507812 0.61718,0.339844 0.92578,0.949219 0.92578,1.824219 0,0.292969 -0.0586,0.597656 -0.17969,0.910156 -0.12109,0.308594 -0.25391,0.566407 -0.39844,0.765625 -0.14453,0.199219 -0.34765,0.441406 -0.59765,0.726563 -0.25391,0.289062 -0.56641,0.628906 -0.9375,1.027343"
         id="path369" />
      <path
         style="fill:#000000;fill-opacity:1;fill-rule:nonzero;stroke:none"
         d="m 406.88281,44.203125 v 15.726563 c 0,1.089843 -0.26172,1.914062 -0.77734,2.472656 -0.51953,0.558594 -1.17578,0.835937 -1.97656,0.835937 -0.79688,0 -1.44141,-0.285156 -1.94141,-0.855469 -0.5,-0.570312 -0.74609,-1.390624 -0.74609,-2.453124 V 44.359375 c 0,-1.074219 0.24609,-1.886719 0.74609,-2.429687 0.5,-0.542969 1.14453,-0.816407 1.94141,-0.816407 0.80078,0 1.45703,0.273438 1.97656,0.816407 0.51562,0.542968 0.77734,1.300781 0.77734,2.273437 m -2.6914,-5.621094 c -0.75782,0 -1.40625,-0.234375 -1.94532,-0.699219 -0.53906,-0.464843 -0.80468,-1.121093 -0.80468,-1.972656 0,-0.769531 0.27343,-1.40625 0.82421,-1.902344 0.55469,-0.5 1.19141,-0.75 1.92579,-0.75 0.70312,0 1.32812,0.226563 1.875,0.679688 0.54296,0.449219 0.8164,1.109375 0.8164,1.972656 0,0.835938 -0.26562,1.492188 -0.80078,1.960938 -0.53125,0.472656 -1.16016,0.710937 -1.89062,0.710937"
         id="path371" />
      <path
         style="fill:#000000;fill-opacity:1;fill-rule:nonzero;stroke:none"
         d="M 412.50391,59.929688 V 36.328125 c 0,-1.089844 0.24218,-1.914063 0.72656,-2.472656 0.48437,-0.558594 1.14062,-0.835938 1.96094,-0.835938 0.82812,0 1.49218,0.273438 1.99609,0.828125 0.50391,0.550782 0.75781,1.378906 0.75781,2.480469 v 23.601563 c 0,1.105468 -0.25781,1.929687 -0.76953,2.480468 -0.51172,0.550782 -1.17187,0.828125 -1.98437,0.828125 -0.79297,0 -1.44532,-0.285156 -1.94141,-0.855469 -0.5,-0.570312 -0.74609,-1.390624 -0.74609,-2.453124"
         id="path373" />
      <path
         style="fill:#000000;fill-opacity:1;fill-rule:nonzero;stroke:none"
         d="M 423.56641,59.929688 V 36.328125 c 0,-1.089844 0.24218,-1.914063 0.72656,-2.472656 0.48828,-0.558594 1.14062,-0.835938 1.96484,-0.835938 0.82422,0 1.48828,0.273438 1.99219,0.828125 0.50781,0.550782 0.75781,1.378906 0.75781,2.480469 v 23.601563 c 0,1.105468 -0.2539,1.929687 -0.76562,2.480468 -0.51563,0.550782 -1.17578,0.828125 -1.98438,0.828125 -0.79687,0 -1.44531,-0.285156 -1.94531,-0.855469 -0.49609,-0.570312 -0.74609,-1.390624 -0.74609,-2.453124"
         id="path375" />
      <path
         style="fill:#000000;fill-opacity:1;fill-rule:nonzero;stroke:none"
         d="m 448.02734,52.292969 c -0.80078,0.292969 -1.96093,0.605469 -3.48047,0.929687 -1.52343,0.324219 -2.57421,0.5625 -3.16015,0.71875 -0.58594,0.152344 -1.14063,0.449219 -1.67188,0.894532 -0.53515,0.445312 -0.79687,1.066406 -0.79687,1.863281 0,0.824219 0.30859,1.527343 0.93359,2.105469 0.625,0.578124 1.44531,0.867187 2.45313,0.867187 1.07422,0 2.07031,-0.234375 2.98047,-0.707031 0.91015,-0.472656 1.57812,-1.082032 2.0039,-1.824219 0.49219,-0.824219 0.73828,-2.179687 0.73828,-4.066406 z m 0.35547,7.875 c -1.3164,1.023437 -2.58594,1.792969 -3.8164,2.304687 -1.22657,0.511719 -2.60547,0.765625 -4.13672,0.765625 -1.39453,0 -2.6211,-0.277343 -3.67578,-0.828125 -1.0586,-0.550781 -1.8711,-1.296875 -2.44141,-2.242187 -0.57031,-0.941407 -0.85938,-1.964844 -0.85938,-3.066407 0,-1.492187 0.47266,-2.757812 1.41797,-3.808593 0.94141,-1.050781 2.23828,-1.753907 3.88282,-2.113281 0.34765,-0.07813 1.20703,-0.261719 2.57421,-0.539063 1.36719,-0.277344 2.54297,-0.535156 3.51563,-0.769531 0.98047,-0.230469 2.03906,-0.511719 3.18359,-0.84375 -0.0664,-1.4375 -0.35547,-2.492188 -0.86718,-3.160156 -0.51563,-0.671876 -1.57422,-1.007813 -3.1836,-1.007813 -1.3789,0 -2.42187,0.195313 -3.11719,0.578125 -0.69531,0.386719 -1.29687,0.964844 -1.79296,1.734375 -0.5,0.769531 -0.85157,1.277344 -1.0586,1.523437 -0.20703,0.246094 -0.64844,0.371094 -1.32422,0.371094 -0.61328,0 -1.14062,-0.195312 -1.58593,-0.589844 -0.44532,-0.390624 -0.66797,-0.890624 -0.66797,-1.503906 0,-0.957031 0.33984,-1.886718 1.01953,-2.789062 0.67578,-0.90625 1.73047,-1.648438 3.16797,-2.234375 1.43359,-0.585938 3.22265,-0.878907 5.35937,-0.878907 2.39453,0 4.27735,0.285157 5.64453,0.847657 1.36719,0.566406 2.33594,1.460937 2.89844,2.683593 0.56641,1.222657 0.84766,2.84375 0.84766,4.863282 0,1.273437 -0.004,2.359375 -0.0117,3.25 -0.004,0.890625 -0.0156,1.878906 -0.0274,2.96875 0,1.023437 0.17188,2.089844 0.50782,3.199218 0.33984,1.109376 0.50781,1.824219 0.50781,2.144532 0,0.558594 -0.26172,1.066406 -0.78906,1.523437 -0.52344,0.460938 -1.11719,0.6875 -1.78125,0.6875 -0.5586,0 -1.10938,-0.261719 -1.65625,-0.785156 -0.54297,-0.527344 -1.1211,-1.289063 -1.73438,-2.285156"
         id="path377" />
      <path
         style="fill:#000000;fill-opacity:1;fill-rule:nonzero;stroke:none"
         d="m 462.49609,63.238281 c -0.82031,0 -1.53125,-0.265625 -2.13281,-0.796875 -0.59375,-0.53125 -0.89453,-1.273437 -0.89453,-2.230468 0,-0.8125 0.28516,-1.511719 0.85547,-2.09375 0.57031,-0.585938 1.27734,-0.878907 2.11328,-0.878907 0.83594,0 1.55078,0.289063 2.14453,0.867188 0.58984,0.578125 0.88672,1.28125 0.88672,2.105469 0,0.941406 -0.29688,1.683593 -0.88672,2.21875 -0.59375,0.539062 -1.28516,0.808593 -2.08594,0.808593"
         id="path379" />
      <path
         style="fill:#000000;fill-opacity:1;fill-rule:nonzero;stroke:none"
         d="m 491.18359,56.5 c 0,0.679688 -0.20312,1.402344 -0.60937,2.171875 -0.40625,0.773437 -1.02344,1.507813 -1.85547,2.203125 -0.82813,0.699219 -1.875,1.261719 -3.13672,1.6875 -1.26172,0.421875 -2.68359,0.636719 -4.26562,0.636719 -3.36329,0 -5.98829,-0.980469 -7.875,-2.941407 -1.88672,-1.960937 -2.82813,-4.585937 -2.82813,-7.882812 0,-2.230469 0.42969,-4.207031 1.29297,-5.921875 0.86328,-1.714844 2.11328,-3.039063 3.74609,-3.976563 1.63672,-0.9375 3.58985,-1.40625 5.86328,-1.40625 1.40625,0 2.69922,0.207032 3.875,0.621094 1.17579,0.410156 2.17579,0.941406 2.99219,1.59375 0.81641,0.652344 1.44141,1.34375 1.8711,2.082032 0.43359,0.738281 0.64843,1.425781 0.64843,2.066406 0,0.648437 -0.24218,1.203125 -0.72656,1.652344 -0.48437,0.453124 -1.07422,0.679687 -1.76562,0.679687 -0.44922,0 -0.82422,-0.117187 -1.125,-0.351563 -0.29688,-0.230468 -0.63282,-0.605468 -1.00391,-1.125 -0.66797,-1.011718 -1.36328,-1.765624 -2.08594,-2.273437 -0.72265,-0.503906 -1.64453,-0.757813 -2.76172,-0.757813 -1.60547,0 -2.90234,0.628907 -3.88672,1.886719 -0.98046,1.253907 -1.47265,2.972657 -1.47265,5.148438 0,1.027343 0.125,1.964843 0.3789,2.824219 0.25,0.855468 0.61719,1.585937 1.09375,2.191406 0.48047,0.605468 1.0586,1.0625 1.73438,1.375 0.67969,0.3125 1.42187,0.46875 2.23437,0.46875 1.08985,0 2.02344,-0.253906 2.80079,-0.757813 0.77734,-0.503906 1.46484,-1.273437 2.0625,-2.3125 0.33203,-0.609375 0.6914,-1.089843 1.07421,-1.433593 0.38672,-0.347657 0.85938,-0.519532 1.41797,-0.519532 0.66407,0 1.21485,0.253906 1.65625,0.757813 0.4375,0.507812 0.65625,1.042969 0.65625,1.613281"
         id="path381" />
      <path
         style="fill:#000000;fill-opacity:1;fill-rule:nonzero;stroke:none"
         d="m 510.83984,52.175781 c 0,-2.21875 -0.48828,-3.945312 -1.46484,-5.183593 -0.97656,-1.234376 -2.29297,-1.855469 -3.9375,-1.855469 -1.06641,0 -2,0.277343 -2.8125,0.828125 -0.80859,0.554687 -1.43359,1.367187 -1.875,2.441406 -0.4375,1.078125 -0.65625,2.332031 -0.65625,3.769531 0,1.421875 0.21484,2.664063 0.64844,3.726563 0.42968,1.0625 1.04687,1.878906 1.85156,2.441406 0.80469,0.566406 1.75391,0.851562 2.84375,0.851562 1.64453,0 2.96094,-0.625 3.9375,-1.867187 0.97656,-1.242187 1.46484,-2.960937 1.46484,-5.152344 m 5.46094,0 c 0,1.621094 -0.25391,3.117188 -0.75781,4.484375 -0.50781,1.371094 -1.23438,2.546875 -2.19141,3.53125 -0.95703,0.980469 -2.10156,1.734375 -3.42969,2.261719 -1.33203,0.523437 -2.82421,0.785156 -4.48437,0.785156 -1.65234,0 -3.12891,-0.265625 -4.44922,-0.796875 -1.3125,-0.53125 -2.45312,-1.292968 -3.41797,-2.28125 -0.96094,-0.992187 -1.6914,-2.160156 -2.1914,-3.507812 -0.5,-1.351563 -0.75,-2.839844 -0.75,-4.476563 0,-1.648437 0.2539,-3.15625 0.76171,-4.523437 0.50391,-1.371094 1.22657,-2.539063 2.17188,-3.507813 0.94141,-0.972656 2.08594,-1.71875 3.42578,-2.242187 1.34375,-0.527344 2.82813,-0.789063 4.44922,-0.789063 1.64453,0 3.14062,0.265625 4.48437,0.796875 1.34375,0.53125 2.49219,1.289063 3.44922,2.273438 0.95703,0.980468 1.6836,2.152344 2.17969,3.507812 0.5,1.355469 0.75,2.847656 0.75,4.484375"
         id="path383" />
      <g
         clip-path="url(#clip16)"
         clip-rule="nonzero"
         id="g387">
        <path
           style="fill:#000000;fill-opacity:1;fill-rule:nonzero;stroke:none"
           d="m 538.6875,52.574219 v 7.234375 c 0,1.144531 -0.26172,2.003906 -0.77734,2.574218 -0.51954,0.570313 -1.20313,0.855469 -2.05469,0.855469 -0.82422,0 -1.49219,-0.285156 -2.00391,-0.855469 -0.51172,-0.570312 -0.76953,-1.429687 -0.76953,-2.574218 v -8.667969 c 0,-1.371094 -0.043,-2.433594 -0.13672,-3.191406 -0.0937,-0.757813 -0.34765,-1.378907 -0.75781,-1.863281 -0.41016,-0.484376 -1.0625,-0.726563 -1.95313,-0.726563 -1.78125,0 -2.95312,0.609375 -3.51953,1.832031 -0.5625,1.222656 -0.84375,2.980469 -0.84375,5.265625 v 7.351563 c 0,1.132812 -0.25781,1.984375 -0.76953,2.5625 -0.51172,0.578125 -1.1875,0.867187 -2.02344,0.867187 -0.82421,0 -1.49609,-0.289062 -2.02343,-0.867187 -0.52344,-0.578125 -0.78907,-1.429688 -0.78907,-2.5625 V 44.242188 c 0,-1.023438 0.23438,-1.800782 0.70704,-2.332032 0.47265,-0.53125 1.09375,-0.796875 1.86328,-0.796875 0.74609,0 1.36718,0.246094 1.86718,0.746094 0.5,0.5 0.7461,1.1875 0.7461,2.0625 v 0.519531 c 0.9414,-1.128906 1.95312,-1.960937 3.03125,-2.492187 1.07422,-0.53125 2.26953,-0.796875 3.58984,-0.796875 1.36719,0 2.54297,0.273437 3.52735,0.816406 0.98437,0.546875 1.79296,1.371094 2.42968,2.472656 0.91797,-1.117187 1.90235,-1.941406 2.94922,-2.480468 1.05078,-0.539063 2.21485,-0.808594 3.48828,-0.808594 1.49219,0 2.77344,0.292968 3.84766,0.875 1.07812,0.585937 1.88281,1.421875 2.41406,2.515625 0.46485,0.980469 0.69531,2.527343 0.69531,4.640625 v 10.625 c 0,1.144531 -0.25781,2.003906 -0.77343,2.574218 -0.51953,0.570313 -1.20313,0.855469 -2.05469,0.855469 -0.82422,0 -1.5,-0.289062 -2.02344,-0.867187 -0.52734,-0.578125 -0.78906,-1.429688 -0.78906,-2.5625 v -9.148438 c 0,-1.167968 -0.0508,-2.105468 -0.14844,-2.808594 -0.0976,-0.707031 -0.37109,-1.296874 -0.80859,-1.777343 -0.4375,-0.476563 -1.10156,-0.714844 -1.99219,-0.714844 -0.71484,0 -1.39844,0.210937 -2.04297,0.636719 -0.64453,0.425781 -1.14844,0.996094 -1.5039,1.714844 -0.39844,0.917968 -0.59766,2.539062 -0.59766,4.863281"
           id="path385" />
      </g>
    </g>
  </defs>
  <g
     id="surface1968"
     transform="translate(-18.48374,-84.949219)">
    <g
       clip-path="url(#clip1)"
       clip-rule="nonzero"
       id="g396">
      <g
         clip-path="url(#clip2)"
         clip-rule="nonzero"
         id="g394">
        <path
           style="fill:url(#linear0);fill-rule:nonzero;stroke:none"
           d="M 771.69922,-744.94922 -689.28516,830.94922 897.87109,2302.3711 2358.8555,726.47266 Z m 0,0"
           id="path392" />
      </g>
    </g>
    <path
       style="fill:#ff8a97;fill-opacity:1;fill-rule:nonzero;stroke:none"
       d="m 1264.0078,336.41016 c -138.0117,141.46093 -333.66014,224.96093 -531.28905,226.75 -46.37109,0.41796 -95.26953,-2.92188 -136.44141,18.39843 -53.10156,27.51172 -78.54687,87.73047 -105,141.35938 -26.44922,53.64062 -65.85937,110.5 -125.23047,117.65234 -39.00781,4.69922 -77.16796,-13.99219 -108.89062,-37.16015 -63.5,-46.40235 -110.71875,-113.83204 -135.01953,-188.55079 -13.5,-41.51953 -19.92969,-85.28906 -18.14063,-128.94921 8.53125,-208.53125 185.74219,-372.21875 392.78125,-351.85938 73.96094,7.26953 147.51953,35.87891 199.48047,89.01953 14.28906,14.60938 28,31.51953 42.48047,46.92969 23.4375,24.94141 48.89063,45.91797 81.96094,46.73828 18.54687,0.46094 36.53906,-6.02734 53.51953,-13.51953 111.58984,-49.21094 208.80075,-147.28906 330.75005,-145.80859 45.2382,0.55078 96.25,22.07031 107.5585,65.8789 10.7422,41.60156 -18.5078,82.35938 -48.5195,113.1211"
       id="path398" />
    <path
       style="fill:#ff7a85;fill-opacity:1;fill-rule:nonzero;stroke:none"
       d="m 1264.0078,336.41016 c -138.0117,141.46093 -333.66014,224.96093 -531.28905,226.75 -25.79297,0.23046 -52.37109,-0.69922 -77.96875,2.10937 -20.41016,2.21875 -40.20313,6.82813 -58.47266,16.28906 -53.10156,27.51172 -78.54687,87.73047 -105,141.35938 -26.44922,53.64062 -65.85937,110.5 -125.23047,117.65234 -39.00781,4.69922 -77.16796,-13.99219 -108.89062,-37.16015 -63.5,-46.40235 -110.71875,-113.83204 -135.01953,-188.55079 1.57031,-14.16796 5.59375,-27.87109 12.84375,-40.64062 21.26562,-37.5 65.53906,-56.48828 108.35937,-61.41797 42.82813,-4.92969 86.06641,1.57813 129.16797,1.98828 62.1211,0.58203 124.33203,-11.73047 181.53906,-35.91797 34.05079,-14.40234 66.97266,-33.49218 91.12891,-61.46093 24.46094,-28.33204 38.48047,-63.92188 57.36328,-96.23047 10.66797,-18.26172 22.8086,-35.3086 36.19922,-51.17969 23.4375,24.94141 48.89063,45.91797 81.96094,46.73828 18.54687,0.46094 36.53906,-6.02734 53.51953,-13.51953 7.42187,-3.26953 14.77734,-6.75781 22.07812,-10.42969 102.55079,-51.3789 194.83203,-136.75781 308.67193,-135.3789 45.2382,0.55078 96.25,22.07031 107.5585,65.8789 10.7422,41.60156 -18.5078,82.35938 -48.5195,113.1211"
       id="path400" />
    <path
       style="fill:#ff6375;fill-opacity:1;fill-rule:nonzero;stroke:none"
       d="m 1264.0078,336.41016 c -138.0117,141.46093 -333.66014,224.96093 -531.28905,226.75 -25.79297,0.23046 -52.37109,-0.69922 -77.96875,2.10937 0.23828,-0.92969 0.51953,-1.85937 0.80859,-2.80078 3.46875,-11.09766 14.51953,-17.76953 24.86719,-23.08984 83.91406,-43.14063 250.73047,-55.66016 233.15234,-183.23047 -2.96875,-21.51953 -11.55078,-42.37891 -17.28125,-63.35938 102.55079,-51.3789 194.83203,-136.75781 308.67193,-135.3789 45.2382,0.55078 96.25,22.07031 107.5585,65.8789 10.7422,41.60156 -18.5078,82.35938 -48.5195,113.1211"
       id="path402" />
    <path
       style="fill:#ffabb3;fill-opacity:1;fill-rule:nonzero;stroke:none"
       d="m 214.55859,391.12109 c 14.87891,27.30078 43.76563,47.37891 74.71094,46.58985 11.10156,-0.28125 21.96875,-3.07032 32.71875,-5.84375 52.875,-13.65235 107.50391,-28.35157 149.80859,-62.88282 42.30469,-34.53125 68.80469,-94.74609 47.67188,-145.09765 -34.08594,-81.21875 -137.38672,-59.09766 -199.30859,-28.90235 -64.61329,31.50391 -138.76172,105.48829 -111.42969,183.07032 1.58203,4.49218 3.53906,8.86328 5.82812,13.0664"
       id="path404" />
    <path
       style="fill:#ffcad1;fill-opacity:1;fill-rule:nonzero;stroke:none"
       d="m 392.77734,237.69531 c -22.57812,0 -32.71875,18.51953 -32.71875,18.51953 0,0 -12.54297,-18.51953 -32.71875,-18.51953 -27.97265,0 -47.32031,16.58203 -43.46875,51.21875 4.53516,40.82422 76.1875,79.19141 76.1875,79.19141 0,0 71.65235,-38.36719 76.19141,-79.19141 3.84766,-34.63672 -15.5,-51.21875 -43.47266,-51.21875"
       id="path406" />
    <path
       style="fill:#ffffff;fill-opacity:1;fill-rule:nonzero;stroke:none"
       d="m 402.87109,490.48437 v 291.35157 h 133.10157 v 32.50781 H 308.91797 V 490.48437 Z m 0,0"
       id="path408" />
    <path
       style="fill:#ffffff;fill-opacity:1;fill-rule:nonzero;stroke:none"
       d="m 685.68359,510.65234 c -17.71484,0 -29.69922,9.76953 -35.94531,29.30078 -6.25,19.53516 -9.37109,56.98047 -9.37109,112.33985 0,55.36328 3.12109,92.8125 9.37109,112.34375 6.24609,19.53515 18.23047,29.30078 35.94531,29.30078 17.71094,0 29.69532,-9.76563 35.94532,-29.30078 C 727.875,745.10547 731,707.65625 731,652.29297 c 0,-55.19922 -3.125,-92.60547 -9.37109,-112.22266 -6.25,-19.60937 -18.23438,-29.41797 -35.94532,-29.41797 m 2.60938,-25.86328 c 94.26953,0 141.40625,55.83985 141.40625,167.50391 0,111.67187 -48.00781,167.50781 -144.01563,167.50781 -96.01172,0 -144.01562,-57.09766 -144.01562,-171.30078 0,-109.14063 48.875,-163.71094 146.625,-163.71094"
       id="path410" />
    <path
       style="fill:#ffffff;fill-opacity:1;fill-rule:nonzero;stroke:none"
       d="m 1104.6797,490.48437 -93.9531,323.85938 H 926.5 L 840.61328,490.48437 h 94.90234 l 64.0625,245.32422 69.98828,-245.32422 z m 0,0"
       id="path412" />
    <path
       style="fill:#ffffff;fill-opacity:1;fill-rule:nonzero;stroke:none"
       d="m 1339.0938,490.48437 v 32.50391 h -116.0196 v 97.98828 h 97.5117 v 32.50391 h -97.5117 v 128.35547 h 135.711 v 32.50781 h -229.668 V 490.48437 Z m 0,0"
       id="path414" />
    <path
       style="fill:#d40c35;fill-opacity:1;fill-rule:nonzero;stroke:none"
       d="m 1480.1367,810.25 c -20.5273,64.80078 -58.8594,122.51953 -101.0898,175.78125 -118.0508,148.88675 -270.8086,270.08985 -442.63674,351.19925 -37.44141,17.6679 -77.3125,33.7695 -118.69141,32.1992 -60.12891,-2.2813 -97.42188,-36 -143.80078,-68.4492 -32.0586,-22.4297 -79.12891,-44.1992 -110.14063,-76.043 -8.10937,-8.3164 -15.11718,-17.3281 -20.46875,-27.2187 -8.67968,-16.0079 -13.03125,-34.3282 -10.6914,-55.7696 2.58203,-23.6914 22.99218,-42.4414 45.60156,-49.9804 22.60156,-7.5391 47.12891,-5.9805 70.82812,-3.5313 81.25,8.3828 162.88282,26.1406 243.85157,15.4336 C 1040.7383,1084.3086 1168.5078,973 1280.1367,870.4375 c 21.25,-19.51953 41.9102,-38.71875 62.0117,-56.90625 24.5118,-22.18359 51.8086,-47.48047 82.2696,-55.54297 10.0625,-2.66016 20.4609,-3.4375 31.2187,-1.60937 8.9805,1.53125 18.0938,5.26953 23.4922,12.60937 8.4805,11.51953 5.3281,27.62109 1.0078,41.26172"
       id="path416" />
    <path
       style="fill:#e61138;fill-opacity:1;fill-rule:nonzero;stroke:none"
       d="m 1424.418,757.98828 c -12.6992,87.70313 -78.8086,149.17188 -144.8594,212.51953 -65.7188,63.03129 -138.1914,116.32029 -202.4922,179.35159 -64.2773,63.0195 -148.07031,111.7187 -236.44921,130.3008 -60.78125,12.7812 -125.39844,10.3281 -184.60938,-8.8008 -29.64844,-9.5899 -56.71094,-23.5 -82.60156,-40.6992 -3.01953,-2.0118 -6.25781,-3.9102 -9.62891,-5.7188 -8.10937,-8.3203 -15.12109,-17.332 -20.46875,-27.2226 -8.67968,-16.0079 -13.03125,-34.3282 -10.6914,-55.7696 2.58203,-23.6914 22.99218,-42.4414 45.60156,-49.9804 22.59766,-7.5391 47.12891,-5.9805 70.82812,-3.5274 81.25,8.3789 162.88282,26.1367 243.85157,15.4297 C 1040.7383,1084.3086 1168.5078,973 1280.1406,870.44141 c -3.0234,-0.24219 -6.0429,-0.35157 -9.0508,-0.35157 24.8282,-17.33984 48.5899,-36.21875 71.0586,-56.55859 24.5079,-22.18359 51.8086,-47.48047 82.2696,-55.54297"
       id="path418" />
    <path
       style="fill:#f32b42;fill-opacity:1;fill-rule:nonzero;stroke:none"
       d="m 1288.9961,871.48047 c -16.6563,-2.64063 -70.168,80.16797 -81.418,92.92969 -49.8515,56.50784 -113.6289,104.48044 -177.5703,144.27734 -122.55077,76.293 -341.8203,157.6719 -486.69921,89.0313 -8.67968,-16.0079 -13.03125,-34.3282 -10.6914,-55.7696 2.58203,-23.6914 22.99218,-42.4414 45.60156,-49.9804 22.59766,-7.5391 47.12891,-5.9805 70.82812,-3.5313 81.25,8.3828 162.88282,26.1406 243.85157,15.4336 C 1040.7383,1084.3086 1168.5078,973 1280.1406,870.4375 c 2.9492,0.23047 5.8985,0.57031 8.8555,1.04297"
       id="path420" />
    <g
       clip-path="url(#clip3)"
       clip-rule="nonzero"
       id="g426">
      <g
         clip-path="url(#clip4)"
         clip-rule="nonzero"
         id="g424">
        <path
           style="fill:url(#pattern0);fill-rule:nonzero;stroke:none"
           d="M 543.30859,1292.9414 H 1424.418 V 757.99219 H 543.30859 Z m 0,0"
           id="path422" />
      </g>
    </g>
    <g
       clip-path="url(#clip6)"
       clip-rule="nonzero"
       id="g432">
      <g
         clip-path="url(#clip7)"
         clip-rule="nonzero"
         id="g430">
        <path
           style="fill:url(#pattern1);fill-rule:nonzero;stroke:none"
           d="M 530.27734,1266.3594 H 1288.9961 V 868.83984 H 530.27734 Z m 0,0"
           id="path428" />
      </g>
    </g>
    <g
       clip-path="url(#clip9)"
       clip-rule="nonzero"
       id="g436">
      <path
         style="fill:none;stroke:#000000;stroke-width:5;stroke-linecap:butt;stroke-linejoin:miter;stroke-miterlimit:10;stroke-opacity:1"
         d="M 9.375e-5,-0.00160625 C -48.08975,-432.79067 -807.71084,-839.52895 -807.71084,-839.52895 c 0,0 -315.51956,168.94141 -552.73046,404.92969 -130.8477,130.16797 -237.8789,280.73828 -254.9688,434.59765375 -40.8007,367.19140625 164.3008,542.99218625 460.8399,542.99218625 213.89842,0 346.85936,-196.35937 346.85936,-196.35937 0,0 107.5,196.35937 346.87109,196.35937 241.98047,0 423.070312,-117.0625 459.351562,-359.66016 8.175782,-54.6914 9,-115.769526 1.48828175,-183.33202625 z m 0,0"
         transform="matrix(1,0,0,-1,1641.5585,630.4398)"
         id="path434" />
    </g>
    <path
       style="fill:none;stroke:#000000;stroke-width:5;stroke-linecap:butt;stroke-linejoin:miter;stroke-miterlimit:10;stroke-opacity:1"
       d="M 9.375e-5,-7.5e-5 V -291.35164 H 133.10166 v -32.50781 H -93.953031 V -7.5e-5 Z m 0,0"
       transform="matrix(1,0,0,-1,402.871,490.4843)"
       id="path438" />
    <path
       style="fill:none;stroke:#000000;stroke-width:5;stroke-linecap:butt;stroke-linejoin:miter;stroke-miterlimit:10;stroke-opacity:1"
       d="m 5.9375e-4,-0.00104375 c -17.71484375,0 -29.69921875,-9.76953125 -35.94531275,-29.30078125 -6.25,-19.535156 -9.371094,-56.980469 -9.371094,-112.339845 0,-55.36328 3.121094,-92.8125 9.371094,-112.34375 6.246094,-19.53515 18.230469,-29.30078 35.94531275,-29.30078 17.71093725,0 29.69531225,9.76563 35.94531225,29.30078 6.246094,19.53125 9.371094,56.98047 9.371094,112.34375 0,55.19922 -3.125,92.60547 -9.371094,112.222657 -6.25,19.609375 -18.234375,29.41796925 -35.94531225,29.41796925 z M 2.609969,25.862237 c 94.269531,0 141.406251,-55.839843 141.406251,-167.503907 0,-111.67187 -48.007814,-167.50781 -144.01562625,-167.50781 -96.01171875,0 -144.01562375,57.09766 -144.01562375,171.30078 0,109.140625 48.874999,163.710937 146.624999,163.710937 z m 0,0"
       transform="matrix(1,0,0,-1,685.683,510.6513)"
       id="path440" />
    <path
       style="fill:none;stroke:#000000;stroke-width:5;stroke-linecap:butt;stroke-linejoin:miter;stroke-miterlimit:10;stroke-opacity:1"
       d="M -0.0018125,-7.5e-5 -93.954937,-323.85945 H -178.1815 L -264.06822,-7.5e-5 h 94.90235 L -105.10338,-245.32429 -35.115094,-7.5e-5 Z m 0,0"
       transform="matrix(1,0,0,-1,1104.6815,490.4843)"
       id="path442" />
    <path
       style="fill:none;stroke:#000000;stroke-width:5;stroke-linecap:butt;stroke-linejoin:miter;stroke-miterlimit:10;stroke-opacity:1"
       d="m 0.00105,-7.5e-5 v -32.503906 h -116.01953 v -97.988279 h 97.511718 v -32.50391 H -116.01848 V -291.35164 H 19.692456 v -32.50781 H -209.97551 V -7.5e-5 Z m 0,0"
       transform="matrix(1,0,0,-1,1339.0927,490.4843)"
       id="path444" />
    <g
       clip-path="url(#clip10)"
       clip-rule="nonzero"
       id="g450">
      <g
         clip-path="url(#clip11)"
         clip-rule="nonzero"
         id="g448">
        <path
           style="fill:url(#pattern2);fill-rule:nonzero;stroke:none"
           d="M 563.77734,1371 H 1487.6055 V 754.55078 H 563.77734 Z m 0,0"
           id="path446" />
      </g>
    </g>
  </g>
</svg>
