<?xml version="1.0" encoding="UTF-8" standalone="no"?>
<!-- Created with Inkscape (http://www.inkscape.org/) -->

<svg
   version="1.1"
   id="svg2"
   xml:space="preserve"
   width="449.04364"
   height="609.03998"
   viewBox="0 0 449.04364 609.03997"
   sodipodi:docname="owls.svg"
   inkscape:version="1.1.2 (0a00cf5339, 2022-02-04)"
   xmlns:inkscape="http://www.inkscape.org/namespaces/inkscape"
   xmlns:sodipodi="http://sodipodi.sourceforge.net/DTD/sodipodi-0.dtd"
   xmlns="http://www.w3.org/2000/svg"
   xmlns:svg="http://www.w3.org/2000/svg"><defs
     id="defs6"><clipPath
       clipPathUnits="userSpaceOnUse"
       id="clipPath440"><path
         d="m 11889,801.898 c -0.1,0 -0.2,0 -0.4,0 0.2,0 0.3,0 0.4,0 m 0.3,0 c -0.1,0 -0.1,0 -0.2,0 0.1,0 0.1,0 0.2,0 m 0.4,0 c -0.1,0 -0.2,0 -0.3,0 0.1,0 0.2,0 0.3,0 m 0.4,0 c -0.1,0 -0.2,0 -0.3,0 0.1,0 0.2,0 0.3,0 m 0.4,0 c -0.2,0 -0.3,0 -0.4,0 0.1,0 0.3,0 0.4,0 m 0.3,0 c -0.1,0 -0.2,0 -0.3,0 0.1,0 0.2,0 0.3,0 m 57.8,-17.097 c -16.9,10.5 -36.6,16.597 -57.7,17.097 21.1,-0.5 40.9,-6.597 57.7,-17.097 m -173.9,-97.102 v 0.102 -0.102 m 0,-0.301 c 0,0 0,0 0,0.102 0,-0.102 0,-0.102 0,-0.102 m 0,-0.3 v 0.101 -0.101 m 0,-0.297 v 0.097 -0.097 m 0,-0.301 c 0,0 0,0 0,0.102 0,-0.102 0,-0.102 0,-0.102 m 0.1,-0.301 v 0.102 -0.102 m 0,-0.301 c 0,0 0,0 0,0.102 0,-0.102 0,-0.102 0,-0.102 m 0,-0.3 v 0 0 m 0,-0.297 c 0,0 0,0 0,0.097 0,-0.097 0,-0.097 0,-0.097 m 0,-0.301 c 0,0 0,0 0,0.102 0,-0.102 0,-0.102 0,-0.102 m 0,-0.301 c 0,0 0,0 0,0.102 0,-0.102 0,-0.102 0,-0.102 m 0,-0.301 v 0 0 m 0,-0.398 c 0,0.102 0,0.102 0,0.102 0,0 0,0 0,-0.102 m 0,-0.199 c 0,0 0,0 0,0.097 0,-0.097 0,-0.097 0,-0.097 m 0,-0.403 c 0,0.102 0,0.102 0,0.102 0,0 0,0 0,-0.102 m 0,-0.3 v 0.101 -0.101 m 0,-0.297 v 0.097 -0.097 m 0,-0.301 v 0.102 -0.102 m 0,-0.402 c 0,0.101 0,0.203 0,0.3 0,-0.097 0,-0.199 0,-0.3 m 0.1,-0.2 V 682 681.898 m 0,-0.398 c 0,0.102 0,0.199 0,0.398 0,-0.199 0,-0.296 0,-0.398 m 0,-0.398 c 0,0.097 0,0.199 0,0.296 0,-0.097 0,-0.199 0,-0.296 m 0,-0.204 c 0,0.102 0,0.102 0,0.204 0,-0.102 0,-0.102 0,-0.204 m 0.9,-12.597 c -0.4,4.301 -0.7,8.5 -0.9,12.597 0.2,-4.097 0.5,-8.296 0.9,-12.597 m 0.1,-0.602 c 0,0.199 0,0.399 -0.1,0.602 0.1,-0.203 0.1,-0.403 0.1,-0.602 m 0.1,-0.301 c -0.1,0.102 -0.1,0.204 -0.1,0.301 0,-0.097 0,-0.199 0.1,-0.301 m 0,-0.3 c 0,0 0,0.101 0,0.203 0,-0.102 0,-0.203 0,-0.203 m 0,-0.399 c 0,0.102 0,0.102 0,0.199 0,-0.097 0,-0.097 0,-0.199 m 0.1,-0.301 c 0,0.102 -0.1,0.102 -0.1,0.204 0,-0.102 0.1,-0.102 0.1,-0.204 m 0,-0.296 c 0,0.097 0,0.097 0,0.097 0,0 0,0 0,-0.097 m 0,-0.301 c 0,0 0,0 0,0.097 0,-0.097 0,-0.097 0,-0.097 m 0.1,-0.301 v 0 0 m 0,-0.301 v 0 0"
         id="path438" /></clipPath></defs><sodipodi:namedview
     id="namedview4"
     pagecolor="#ffffff"
     bordercolor="#666666"
     borderopacity="1.0"
     inkscape:pageshadow="2"
     inkscape:pageopacity="0.0"
     inkscape:pagecheckerboard="0"
     showgrid="false"
     inkscape:zoom="0.35786855"
     inkscape:cx="-117.36153"
     inkscape:cy="706.9635"
     inkscape:window-width="1589"
     inkscape:window-height="991"
     inkscape:window-x="26"
     inkscape:window-y="23"
     inkscape:window-maximized="0"
     inkscape:current-layer="g10"
     fit-margin-top="0"
     fit-margin-left="0"
     fit-margin-right="0"
     fit-margin-bottom="0" /><g
     id="g8"
     inkscape:groupmode="layer"
     inkscape:label="ink_ext_XXXXXX"
     transform="matrix(1.3333333,0,0,-1.3333333,-1509.4282,2185.1599)"><g
       id="g10"
       transform="scale(0.1)"><path
         d="m 12288.6,12439.9 c 0,0 -341.8,-117.1 -258.2,-518.6 l 258.2,267.7 93.2,-368.1 83.6,309.5 241,-242.6 c 0,0 74.8,518.5 -417.8,552.1 v 0"
         style="fill:#bdbcbc;fill-opacity:1;fill-rule:nonzero;stroke:none"
         id="path54" /><path
         d="m 13570.3,12439.9 c 0,0 -341.9,-117.1 -258.2,-518.6 l 258.2,267.7 93.1,-368.1 83.7,309.5 240.9,-242.6 c 0,0 74.9,518.5 -417.7,552.1 v 0"
         style="fill:#bdbcbc;fill-opacity:1;fill-rule:nonzero;stroke:none"
         id="path56" /><path
         d="m 14518.9,14288.8 c 0,-1159.7 -677.9,-2099.8 -1514.2,-2099.8 -836.3,0 -1514.3,940.1 -1514.3,2099.8 0,1159.7 678,2099.9 1514.3,2099.9 836.3,0 1514.2,-940.2 1514.2,-2099.9 v 0"
         style="fill:#f4f4f4;fill-opacity:1;fill-rule:nonzero;stroke:none"
         id="path58" /><path
         d="m 14100.6,13930.8 c 0,-839.3 -490.7,-1519.8 -1096,-1519.8 -605.3,0 -1096,680.5 -1096,1519.8 0,839.5 490.7,1519.9 1096,1519.9 605.3,0 1096,-680.4 1096,-1519.9 v 0"
         style="fill:#deddde;fill-opacity:1;fill-rule:nonzero;stroke:none"
         id="path60" /><path
         d="m 13477.7,15870 c -184.5,0 -351.6,-74.3 -473,-194.6 -121.5,120.3 -288.6,194.6 -473,194.6 -371.6,0 -672.7,-301.1 -672.7,-672.6 0,-371.4 301.1,-672.5 672.7,-672.5 184.4,0 351.5,74.4 473,194.7 121.4,-120.3 288.5,-194.7 473,-194.7 371.4,0 672.6,301.1 672.6,672.5 0,371.5 -301.2,672.6 -672.6,672.6 v 0"
         style="fill:#ffffff;fill-opacity:1;fill-rule:nonzero;stroke:none"
         id="path62" /><path
         d="m 12807.2,15197.4 c 0,-218.1 -176.8,-395 -395,-395 -218.1,0 -395,176.9 -395,395 0,218.2 176.9,395 395,395 218.2,0 395,-176.8 395,-395 v 0"
         style="fill:#fbc108;fill-opacity:1;fill-rule:nonzero;stroke:none"
         id="path64" /><path
         d="m 12412.2,14944.2 c -139.6,0 -253.2,113.6 -253.2,253.2 0,139.7 113.6,253.3 253.2,253.3 139.7,0 253.2,-113.6 253.2,-253.3 0,-139.6 -113.5,-253.2 -253.2,-253.2 v 0"
         style="fill:#231f20;fill-opacity:1;fill-rule:nonzero;stroke:none"
         id="path66" /><path
         d="m 13992.1,15197.4 c 0,-218.1 -176.8,-395 -395,-395 -218.1,0 -395,176.9 -395,395 0,218.2 176.9,395 395,395 218.2,0 395,-176.8 395,-395 v 0"
         style="fill:#fbc108;fill-opacity:1;fill-rule:nonzero;stroke:none"
         id="path68" /><path
         d="m 13597.1,14944.2 c -139.6,0 -253.2,113.6 -253.2,253.2 0,139.7 113.6,253.3 253.2,253.3 139.7,0 253.3,-113.6 253.3,-253.3 0,-139.6 -113.6,-253.2 -253.3,-253.2 v 0"
         style="fill:#231f20;fill-opacity:1;fill-rule:nonzero;stroke:none"
         id="path70" /><path
         d="m 13232.6,14944.2 -227.9,-798.6 -227.9,798.6 h 455.8 v 0"
         style="fill:#fbc108;fill-opacity:1;fill-rule:nonzero;stroke:none"
         id="path72" /><path
         d="m 13002,13909 c -4.7,0 -9.4,0.2 -14.1,0.4 -141.8,7.9 -232.2,133.5 -236,138.9 -15.9,22.5 -10.5,53.7 12,69.7 22.5,15.9 53.7,10.6 69.6,-11.9 1.3,-1.7 67.6,-92 160.5,-96.8 60.4,-3.2 122.7,30.8 185.1,101 18.3,20.7 49.9,22.6 70.6,4.2 20.6,-18.3 22.5,-49.9 4.1,-70.6 -79.5,-89.5 -164.1,-134.9 -251.8,-134.9 v 0"
         style="fill:#ffffff;fill-opacity:1;fill-rule:nonzero;stroke:none"
         id="path74" /><path
         d="m 13002,12611.4 c -4.7,0 -9.4,0.2 -14.1,0.4 -141.8,7.9 -232.2,133.5 -235.9,138.8 -16,22.6 -10.6,53.8 11.9,69.7 22.5,15.9 53.7,10.6 69.6,-11.8 1.2,-1.7 67.6,-92.1 160.5,-96.9 60.5,-3.1 122.7,30.9 185.1,101.1 18.3,20.6 49.9,22.5 70.6,4.2 20.6,-18.4 22.5,-50 4.1,-70.6 -79.5,-89.6 -164.1,-134.9 -251.8,-134.9 v 0"
         style="fill:#ffffff;fill-opacity:1;fill-rule:nonzero;stroke:none"
         id="path76" /><path
         d="m 12453,13279.5 c -4.7,0 -9.5,0.2 -14.2,0.4 -141.8,7.9 -232.1,133.5 -235.9,138.9 -15.9,22.5 -10.6,53.7 12,69.6 22.5,15.9 53.6,10.6 69.6,-11.8 1.2,-1.7 67.5,-92 160.4,-96.8 60.5,-3.2 122.8,30.8 185.1,101 18.3,20.6 50,22.5 70.6,4.2 20.6,-18.4 22.5,-49.9 4.2,-70.6 -79.6,-89.5 -164.2,-134.9 -251.8,-134.9 v 0"
         style="fill:#ffffff;fill-opacity:1;fill-rule:nonzero;stroke:none"
         id="path78" /><path
         d="m 13002,13279.5 c -4.7,0 -9.4,0.2 -14.1,0.4 -141.8,7.9 -232.2,133.5 -235.9,138.9 -16,22.5 -10.6,53.7 11.9,69.6 22.5,15.9 53.7,10.6 69.6,-11.8 1.2,-1.7 67.6,-92 160.5,-96.8 60.5,-3.2 122.7,30.8 185.1,101 18.3,20.6 49.9,22.5 70.6,4.2 20.6,-18.4 22.5,-49.9 4.1,-70.6 -79.5,-89.5 -164.1,-134.9 -251.8,-134.9 v 0"
         style="fill:#ffffff;fill-opacity:1;fill-rule:nonzero;stroke:none"
         id="path80" /><path
         d="m 13551.1,13279.5 c -4.7,0 -9.4,0.2 -14.2,0.4 -141.8,7.9 -232.1,133.5 -235.9,138.9 -15.9,22.5 -10.6,53.7 12,69.6 22.5,15.9 53.6,10.6 69.6,-11.8 1.2,-1.7 67.5,-92 160.5,-96.8 60.4,-3.2 122.7,30.8 185,101 18.4,20.6 50,22.5 70.6,4.2 20.7,-18.4 22.5,-49.9 4.2,-70.6 -79.5,-89.5 -164.2,-134.9 -251.8,-134.9 v 0"
         style="fill:#ffffff;fill-opacity:1;fill-rule:nonzero;stroke:none"
         id="path82" /><path
         d="m 12713.1,13632.9 c -4.8,0 -9.5,0.1 -14.2,0.4 -141.8,7.8 -232.2,133.5 -235.9,138.8 -16,22.6 -10.6,53.8 11.9,69.7 22.6,15.9 53.7,10.6 69.6,-11.9 1.3,-1.7 67.6,-92 160.5,-96.8 60.5,-3.1 122.7,30.9 185.1,101.1 18.3,20.6 49.9,22.5 70.6,4.2 20.6,-18.4 22.5,-50 4.2,-70.6 -79.6,-89.6 -164.2,-134.9 -251.8,-134.9 v 0"
         style="fill:#ffffff;fill-opacity:1;fill-rule:nonzero;stroke:none"
         id="path84" /><path
         d="m 13291.1,13632.9 c -4.8,0 -9.5,0.1 -14.3,0.4 -141.7,7.8 -232,133.5 -235.8,138.8 -15.9,22.6 -10.6,53.8 12,69.7 22.5,15.9 53.6,10.6 69.6,-11.9 1.3,-1.8 67.6,-92 160.4,-96.8 60.5,-3.2 122.7,30.8 185.1,101.1 18.3,20.6 49.9,22.5 70.5,4.2 20.7,-18.4 22.6,-50 4.2,-70.6 -79.5,-89.6 -164.1,-134.9 -251.7,-134.9 v 0"
         style="fill:#ffffff;fill-opacity:1;fill-rule:nonzero;stroke:none"
         id="path86" /><path
         d="m 12713.1,12937.2 c -4.8,0 -9.5,0.1 -14.2,0.4 -141.8,7.8 -232.2,133.5 -235.9,138.8 -16,22.6 -10.6,53.8 11.9,69.7 22.6,15.9 53.7,10.6 69.6,-11.8 1.3,-1.8 67.6,-92.1 160.5,-96.9 60.5,-3.1 122.7,30.9 185.1,101.1 18.3,20.6 49.9,22.5 70.6,4.1 20.6,-18.3 22.5,-49.9 4.2,-70.5 -79.6,-89.6 -164.2,-134.9 -251.8,-134.9 v 0"
         style="fill:#ffffff;fill-opacity:1;fill-rule:nonzero;stroke:none"
         id="path88" /><path
         d="m 13291.1,12937.2 c -4.8,0 -9.5,0.1 -14.3,0.4 -141.7,7.8 -232,133.5 -235.8,138.8 -15.9,22.6 -10.6,53.8 12,69.7 22.5,15.9 53.6,10.6 69.6,-11.9 1.3,-1.8 67.6,-92 160.4,-96.8 60.5,-3.2 122.7,30.8 185.1,101.1 18.3,20.6 49.9,22.5 70.5,4.1 20.7,-18.3 22.6,-49.9 4.2,-70.5 -79.5,-89.6 -164.1,-134.9 -251.7,-134.9 v 0"
         style="fill:#ffffff;fill-opacity:1;fill-rule:nonzero;stroke:none"
         id="path90" /><path
         d="m 12177.7,13777.5 c 151.4,-558.8 -110.6,-1116.1 -110.6,-1116.1 0,0 -507.4,348.9 -658.7,907.8 -151.4,558.9 -101.8,1058.6 110.6,1116.1 212.5,57.5 507.4,-348.9 658.7,-907.8 v 0"
         style="fill:#d3d2d2;fill-opacity:1;fill-rule:nonzero;stroke:none"
         id="path92" /><path
         d="m 13831.5,13777.5 c -151.4,-558.8 110.7,-1116.1 110.7,-1116.1 0,0 507.4,348.9 658.7,907.8 151.3,558.9 101.8,1058.6 -110.7,1116.1 -212.4,57.5 -507.3,-348.9 -658.7,-907.8 v 0"
         style="fill:#d3d2d2;fill-opacity:1;fill-rule:nonzero;stroke:none"
         id="path94" /></g></g></svg>
