<?xml version="1.0" encoding="UTF-8" standalone="no"?>
<svg
   width="276.40485pt"
   height="136.4903pt"
   viewBox="0 0 276.40485 136.4903"
   version="1.2"
   id="svg267"
   sodipodi:docname="star.svg"
   inkscape:version="1.1.2 (0a00cf5339, 2022-02-04)"
   xmlns:inkscape="http://www.inkscape.org/namespaces/inkscape"
   xmlns:sodipodi="http://sodipodi.sourceforge.net/DTD/sodipodi-0.dtd"
   xmlns:xlink="http://www.w3.org/1999/xlink"
   xmlns="http://www.w3.org/2000/svg"
   xmlns:svg="http://www.w3.org/2000/svg">
  <sodipodi:namedview
     id="namedview269"
     pagecolor="#ffffff"
     bordercolor="#666666"
     borderopacity="1.0"
     inkscape:pageshadow="2"
     inkscape:pageopacity="0.0"
     inkscape:pagecheckerboard="0"
     inkscape:document-units="pt"
     showgrid="false"
     fit-margin-top="0"
     fit-margin-left="0"
     fit-margin-right="0"
     fit-margin-bottom="0"
     inkscape:zoom="0.48875"
     inkscape:cx="465.47315"
     inkscape:cy="519.69309"
     inkscape:window-width="1920"
     inkscape:window-height="1043"
     inkscape:window-x="0"
     inkscape:window-y="0"
     inkscape:window-maximized="1"
     inkscape:current-layer="surface3915" />
  <defs
     id="defs206">
    <clipPath
       id="clip1">
      <path
         d="M 0,0 H 1600 V 277 H 0 Z m 0,0"
         id="path2" />
    </clipPath>
    <clipPath
       id="clip2">
      <path
         d="M 0,0 V 276.69531 C 13.046875,251.03125 41.515625,221.25 102.88672,202.27344 c 82.53125,-25.51563 188.13281,5.27343 210.10156,55.89843 1.30469,-0.26562 2.60547,-0.54296 3.91016,-0.80468 0.58984,-55.1875 62.33203,-110.10547 147.40625,-121.39063 85.05859,-11.4375 158.74218,25.35547 173.75781,78.44922 1.32031,-0.0859 2.64062,-0.17578 3.96094,-0.26562 7.84765,-54.61719 76.01172,-100.84375 161.65234,-100.77735 85.64063,-0.0859 153.81641,46.1211 161.67969,100.73438 1.32031,0.0898 2.64062,0.17578 3.96094,0.26562 15,-53.10156 88.67579,-89.91406 173.73829,-78.5 85.0742,11.26563 146.832,66.15625 147.4336,121.34375 1.3047,0.26172 2.6055,0.52735 3.9101,0.78906 21.9532,-50.63281 120.7813,-86.77343 204.6016,-65.88281 58.4922,14.57813 87.0547,50.11328 101,81 V 0 Z m 0,0"
         id="path5" />
    </clipPath>
    <linearGradient
       id="linear0"
       gradientUnits="userSpaceOnUse"
       x1="0.75311899"
       y1="0"
       x2="0.890185"
       y2="0"
       gradientTransform="matrix(1e-7,-2018.6808,2018.6808,1e-7,802.09265,1797)">
      <stop
         offset="0"
         style="stop-color:rgb(19.215393%,67.059326%,81.96106%);stop-opacity:1;"
         id="stop8" />
      <stop
         offset="0.03125"
         style="stop-color:rgb(19.215393%,67.059326%,81.96106%);stop-opacity:1;"
         id="stop10" />
      <stop
         offset="0.0625"
         style="stop-color:rgb(18.823242%,67.059326%,81.96106%);stop-opacity:1;"
         id="stop12" />
      <stop
         offset="0.09375"
         style="stop-color:rgb(18.431091%,67.059326%,81.96106%);stop-opacity:1;"
         id="stop14" />
      <stop
         offset="0.125"
         style="stop-color:rgb(18.03894%,66.667175%,81.568909%);stop-opacity:1;"
         id="stop16" />
      <stop
         offset="0.15625"
         style="stop-color:rgb(18.03894%,66.667175%,81.568909%);stop-opacity:1;"
         id="stop18" />
      <stop
         offset="0.1875"
         style="stop-color:rgb(17.64679%,66.667175%,81.568909%);stop-opacity:1;"
         id="stop20" />
      <stop
         offset="0.21875"
         style="stop-color:rgb(17.254639%,66.275024%,81.568909%);stop-opacity:1;"
         id="stop22" />
      <stop
         offset="0.25"
         style="stop-color:rgb(16.862488%,66.275024%,81.568909%);stop-opacity:1;"
         id="stop24" />
      <stop
         offset="0.28125"
         style="stop-color:rgb(16.470337%,66.275024%,81.568909%);stop-opacity:1;"
         id="stop26" />
      <stop
         offset="0.3125"
         style="stop-color:rgb(16.078186%,66.275024%,81.568909%);stop-opacity:1;"
         id="stop28" />
      <stop
         offset="0.34375"
         style="stop-color:rgb(15.686035%,65.882874%,81.568909%);stop-opacity:1;"
         id="stop30" />
      <stop
         offset="0.375"
         style="stop-color:rgb(15.686035%,65.882874%,81.568909%);stop-opacity:1;"
         id="stop32" />
      <stop
         offset="0.40625"
         style="stop-color:rgb(15.293884%,65.882874%,81.176758%);stop-opacity:1;"
         id="stop34" />
      <stop
         offset="0.4375"
         style="stop-color:rgb(14.901733%,65.490723%,81.176758%);stop-opacity:1;"
         id="stop36" />
      <stop
         offset="0.46875"
         style="stop-color:rgb(14.509583%,65.490723%,81.176758%);stop-opacity:1;"
         id="stop38" />
      <stop
         offset="0.5"
         style="stop-color:rgb(14.117432%,65.490723%,81.176758%);stop-opacity:1;"
         id="stop40" />
      <stop
         offset="0.53125"
         style="stop-color:rgb(13.725281%,65.490723%,81.176758%);stop-opacity:1;"
         id="stop42" />
      <stop
         offset="0.5625"
         style="stop-color:rgb(13.33313%,65.098572%,81.176758%);stop-opacity:1;"
         id="stop44" />
      <stop
         offset="0.59375"
         style="stop-color:rgb(13.33313%,65.098572%,81.176758%);stop-opacity:1;"
         id="stop46" />
      <stop
         offset="0.625"
         style="stop-color:rgb(12.940979%,65.098572%,81.176758%);stop-opacity:1;"
         id="stop48" />
      <stop
         offset="0.65625"
         style="stop-color:rgb(12.548828%,64.706421%,80.784607%);stop-opacity:1;"
         id="stop50" />
      <stop
         offset="0.6875"
         style="stop-color:rgb(12.156677%,64.706421%,80.784607%);stop-opacity:1;"
         id="stop52" />
      <stop
         offset="0.71875"
         style="stop-color:rgb(11.764526%,64.706421%,80.784607%);stop-opacity:1;"
         id="stop54" />
      <stop
         offset="0.75"
         style="stop-color:rgb(11.372375%,64.706421%,80.784607%);stop-opacity:1;"
         id="stop56" />
      <stop
         offset="0.78125"
         style="stop-color:rgb(10.980225%,64.31427%,80.784607%);stop-opacity:1;"
         id="stop58" />
      <stop
         offset="0.8125"
         style="stop-color:rgb(10.980225%,64.31427%,80.784607%);stop-opacity:1;"
         id="stop60" />
      <stop
         offset="0.84375"
         style="stop-color:rgb(10.588074%,64.31427%,80.784607%);stop-opacity:1;"
         id="stop62" />
      <stop
         offset="0.875"
         style="stop-color:rgb(10.195923%,64.31427%,80.784607%);stop-opacity:1;"
         id="stop64" />
      <stop
         offset="0.90625"
         style="stop-color:rgb(9.803772%,63.922119%,80.392456%);stop-opacity:1;"
         id="stop66" />
      <stop
         offset="0.9375"
         style="stop-color:rgb(9.411621%,63.922119%,80.392456%);stop-opacity:1;"
         id="stop68" />
      <stop
         offset="0.96875"
         style="stop-color:rgb(9.01947%,63.922119%,80.392456%);stop-opacity:1;"
         id="stop70" />
      <stop
         offset="1"
         style="stop-color:rgb(8.627319%,63.529968%,80.392456%);stop-opacity:1;"
         id="stop72" />
    </linearGradient>
    <clipPath
       id="clip3">
      <path
         d="m 0,967 h 1600 v 233 H 0 Z m 0,0"
         id="path75" />
    </clipPath>
    <clipPath
       id="clip4">
      <path
         d="m 1497,1053.5234 c -83.8203,20.8907 -182.6484,-15.25 -204.6055,-65.87887 -1.3007,0.26172 -2.6015,0.52734 -3.9062,0.78906 -0.6016,55.18361 -62.3594,110.07811 -147.4336,121.33981 -85.0625,11.418 -158.73829,-25.3984 -173.73829,-78.4961 -1.32032,0.09 -2.64063,0.1758 -3.96094,0.2618 -7.86328,54.6172 -76.03906,100.8242 -161.67969,100.7382 -85.64062,0.067 -153.80469,-46.1601 -161.65234,-100.7773 -1.32032,-0.086 -2.64063,-0.1719 -3.96094,-0.2617 -15.01563,53.0937 -88.69922,89.8945 -173.75781,78.4531 -85.07422,-11.2851 -146.81641,-66.1914 -147.40625,-121.37499 -1.30469,-0.26563 -2.60547,-0.51954 -3.91016,-0.78516 -21.96875,50.62105 -127.57031,81.45315 -210.10156,55.93755 C 42.476562,1025.4102 13.871094,997.58594 0,972.83203 V 1200 H 1600 V 967.98828 c -13.1406,31.83984 -41.5547,70.22262 -103,85.53512"
         id="path78" />
    </clipPath>
    <linearGradient
       id="linear1"
       gradientUnits="userSpaceOnUse"
       x1="0.29573801"
       y1="0"
       x2="0.41067001"
       y2="0"
       gradientTransform="matrix(1e-7,-2018.6808,2018.6808,1e-7,800.09265,1797)">
      <stop
         offset="0"
         style="stop-color:rgb(55.2948%,78.823853%,87.059021%);stop-opacity:1;"
         id="stop81" />
      <stop
         offset="0.03125"
         style="stop-color:rgb(54.902649%,78.823853%,87.059021%);stop-opacity:1;"
         id="stop83" />
      <stop
         offset="0.0625"
         style="stop-color:rgb(54.902649%,78.823853%,87.059021%);stop-opacity:1;"
         id="stop85" />
      <stop
         offset="0.09375"
         style="stop-color:rgb(54.510498%,78.823853%,86.66687%);stop-opacity:1;"
         id="stop87" />
      <stop
         offset="0.125"
         style="stop-color:rgb(54.118347%,78.823853%,86.66687%);stop-opacity:1;"
         id="stop89" />
      <stop
         offset="0.15625"
         style="stop-color:rgb(54.118347%,78.431702%,86.66687%);stop-opacity:1;"
         id="stop91" />
      <stop
         offset="0.1875"
         style="stop-color:rgb(53.726196%,78.431702%,86.66687%);stop-opacity:1;"
         id="stop93" />
      <stop
         offset="0.21875"
         style="stop-color:rgb(53.334045%,78.431702%,86.66687%);stop-opacity:1;"
         id="stop95" />
      <stop
         offset="0.25"
         style="stop-color:rgb(52.941895%,78.431702%,86.66687%);stop-opacity:1;"
         id="stop97" />
      <stop
         offset="0.28125"
         style="stop-color:rgb(52.941895%,78.039551%,86.66687%);stop-opacity:1;"
         id="stop99" />
      <stop
         offset="0.3125"
         style="stop-color:rgb(52.549744%,78.039551%,86.66687%);stop-opacity:1;"
         id="stop101" />
      <stop
         offset="0.34375"
         style="stop-color:rgb(52.157593%,78.039551%,86.66687%);stop-opacity:1;"
         id="stop103" />
      <stop
         offset="0.375"
         style="stop-color:rgb(52.157593%,78.039551%,86.66687%);stop-opacity:1;"
         id="stop105" />
      <stop
         offset="0.40625"
         style="stop-color:rgb(51.765442%,78.039551%,86.274719%);stop-opacity:1;"
         id="stop107" />
      <stop
         offset="0.4375"
         style="stop-color:rgb(51.373291%,77.6474%,86.274719%);stop-opacity:1;"
         id="stop109" />
      <stop
         offset="0.46875"
         style="stop-color:rgb(50.98114%,77.6474%,86.274719%);stop-opacity:1;"
         id="stop111" />
      <stop
         offset="0.5"
         style="stop-color:rgb(50.98114%,77.6474%,86.274719%);stop-opacity:1;"
         id="stop113" />
      <stop
         offset="0.53125"
         style="stop-color:rgb(50.588989%,77.6474%,86.274719%);stop-opacity:1;"
         id="stop115" />
      <stop
         offset="0.5625"
         style="stop-color:rgb(50.196838%,77.255249%,86.274719%);stop-opacity:1;"
         id="stop117" />
      <stop
         offset="0.59375"
         style="stop-color:rgb(50.196838%,77.255249%,86.274719%);stop-opacity:1;"
         id="stop119" />
      <stop
         offset="0.625"
         style="stop-color:rgb(49.803162%,77.255249%,86.274719%);stop-opacity:1;"
         id="stop121" />
      <stop
         offset="0.65625"
         style="stop-color:rgb(49.411011%,77.255249%,86.274719%);stop-opacity:1;"
         id="stop123" />
      <stop
         offset="0.6875"
         style="stop-color:rgb(49.01886%,76.863098%,86.274719%);stop-opacity:1;"
         id="stop125" />
      <stop
         offset="0.71875"
         style="stop-color:rgb(49.01886%,76.863098%,85.882568%);stop-opacity:1;"
         id="stop127" />
      <stop
         offset="0.75"
         style="stop-color:rgb(48.626709%,76.863098%,85.882568%);stop-opacity:1;"
         id="stop129" />
      <stop
         offset="0.78125"
         style="stop-color:rgb(48.234558%,76.863098%,85.882568%);stop-opacity:1;"
         id="stop131" />
      <stop
         offset="0.8125"
         style="stop-color:rgb(48.234558%,76.470947%,85.882568%);stop-opacity:1;"
         id="stop133" />
      <stop
         offset="0.84375"
         style="stop-color:rgb(47.842407%,76.470947%,85.882568%);stop-opacity:1;"
         id="stop135" />
      <stop
         offset="0.875"
         style="stop-color:rgb(47.450256%,76.470947%,85.882568%);stop-opacity:1;"
         id="stop137" />
      <stop
         offset="0.90625"
         style="stop-color:rgb(47.058105%,76.470947%,85.882568%);stop-opacity:1;"
         id="stop139" />
      <stop
         offset="0.9375"
         style="stop-color:rgb(47.058105%,76.078796%,85.882568%);stop-opacity:1;"
         id="stop141" />
      <stop
         offset="0.96875"
         style="stop-color:rgb(46.665955%,76.078796%,85.882568%);stop-opacity:1;"
         id="stop143" />
      <stop
         offset="1"
         style="stop-color:rgb(46.273804%,76.078796%,85.882568%);stop-opacity:1;"
         id="stop145" />
    </linearGradient>
    <filter
       id="alpha"
       filterUnits="objectBoundingBox"
       x="0"
       y="0"
       width="1"
       height="1">
      <feColorMatrix
         type="matrix"
         in="SourceGraphic"
         values="0 0 0 0 1 0 0 0 0 1 0 0 0 0 1 0 0 0 1 0"
         id="feColorMatrix148" />
    </filter>
    <mask
       id="mask0">
      <g
         filter="url(#alpha)"
         id="g153">
        <rect
           x="0"
           y="0"
           width="1600"
           height="1200"
           style="fill:#000000;fill-opacity:0.559998;stroke:none"
           id="rect151" />
      </g>
    </mask>
    <clipPath
       id="clip6">
      <path
         d="M 0,0 H 1600 V 327 H 0 Z m 0,0"
         id="path156" />
    </clipPath>
    <clipPath
       id="clip7">
      <path
         d="m -10.304688,-21 0.01172,347.66016 c 0,0 -13.503906,-85.21875 113.179689,-124.38282 82.53125,-25.51953 188.13281,5.26953 210.10156,55.89453 1.30469,-0.26562 2.60547,-0.54296 3.91016,-0.80468 0.58984,-55.1875 62.33203,-110.10547 147.40625,-121.39063 85.05859,-11.4375 158.74218,25.35547 173.75781,78.44922 1.32031,-0.0859 2.64062,-0.17969 3.96094,-0.26562 7.84765,-54.61719 76.01172,-100.84375 161.65234,-100.77735 85.64063,-0.0859 153.81641,46.1211 161.67969,100.73828 1.32031,0.0859 2.64062,0.17188 3.96094,0.26172 15,-53.10156 88.67579,-89.91406 173.73439,-78.5 85.0781,11.26563 146.832,66.15625 147.4375,121.34375 1.3047,0.26172 2.6055,0.52735 3.9101,0.78906 21.9532,-50.63281 120.7774,-86.77343 204.6016,-65.88281 113,28.16406 114.293,134.52735 114.293,134.52735 L 1614.8984,-21 Z m 0,0"
         id="path159" />
    </clipPath>
    <clipPath
       id="clip8">
      <rect
         x="0"
         y="0"
         width="83"
         height="1831"
         id="rect162" />
    </clipPath>
    <g
       id="surface3920"
       clip-path="url(#clip8)">
      <path
         style="fill:#0066ba;fill-opacity:1;fill-rule:nonzero;stroke:none"
         d="M 42.511719,0 H 0 v 1831.0039 h 42.511719 z m 0,0"
         id="path165" />
      <path
         style="fill:#0073bd;fill-opacity:1;fill-rule:nonzero;stroke:none"
         d="M 83,0 H 40.488281 V 1831.0039 H 83 Z m 0,0"
         id="path167" />
    </g>
    <pattern
       id="pattern0"
       patternUnits="userSpaceOnUse"
       width="83"
       height="1831"
       patternTransform="matrix(0.988053,0,0,-0.999552,0,1830.18)">
      <use
         xlink:href="#surface3920"
         id="use170" />
    </pattern>
    <clipPath
       id="clip9">
      <path
         d="m 0,919 h 1600 v 281 H 0 Z m 0,0"
         id="path173" />
    </clipPath>
    <clipPath
       id="clip10">
      <path
         d="m -12.304688,1200 0.01172,-280.82813 c 0,0 -13.503906,85.12893 113.179689,124.29693 82.53125,25.5156 188.13281,-5.3165 210.10156,-55.93755 1.30469,0.26562 2.60547,0.51953 3.91016,0.78125 0.58984,55.1875 62.33203,110.0938 147.40625,121.3789 85.05859,11.4414 158.74218,-25.3594 173.75781,-78.4531 1.32031,0.086 2.64062,0.1758 3.96094,0.2617 7.84765,54.6172 76.01172,100.8438 161.65234,100.7773 85.64063,0.086 153.81641,-46.121 161.67969,-100.7382 1.32031,-0.086 2.64062,-0.1719 3.96094,-0.2618 15,53.0977 88.67579,89.9141 173.73439,78.4961 85.0781,-11.2617 146.832,-66.1562 147.4375,-121.34371 1.3047,-0.25782 2.6055,-0.52344 3.9101,-0.78516 21.9532,50.62887 120.7774,86.76957 204.6016,65.87887 113,-28.1601 114.293,-134.35153 114.293,-134.35153 L 1612.8984,1200 Z m 0,0"
         id="path176" />
    </clipPath>
    <clipPath
       id="clip11">
      <rect
         x="0"
         y="0"
         width="83"
         height="1831"
         id="rect179" />
    </clipPath>
    <g
       id="surface3923"
       clip-path="url(#clip11)">
      <path
         style="fill:#0066ba;fill-opacity:1;fill-rule:nonzero;stroke:none"
         d="M 42.511719,0 H 0 v 1831.0039 h 42.511719 z m 0,0"
         id="path182" />
      <path
         style="fill:#0073bd;fill-opacity:1;fill-rule:nonzero;stroke:none"
         d="M 83,0 H 40.488281 V 1831.0039 H 83 Z m 0,0"
         id="path184" />
    </g>
    <pattern
       id="pattern1"
       patternUnits="userSpaceOnUse"
       width="83"
       height="1831"
       patternTransform="matrix(0.988053,0,0,-0.999552,0,1830.18)">
      <use
         xlink:href="#surface3923"
         id="use187" />
    </pattern>
    <clipPath
       id="clip5">
      <rect
         x="0"
         y="0"
         width="1600"
         height="1200"
         id="rect190" />
    </clipPath>
    <g
       id="surface3925"
       clip-path="url(#clip5)">
      <g
         clip-path="url(#clip6)"
         clip-rule="nonzero"
         id="g197">
        <g
           clip-path="url(#clip7)"
           clip-rule="nonzero"
           id="g195">
          <path
             style="fill:url(#pattern0);fill-rule:nonzero;stroke:none"
             d="M 0,326.66016 H 1600 V 0 H 0 Z m 0,0"
             id="path193" />
        </g>
      </g>
      <g
         clip-path="url(#clip9)"
         clip-rule="nonzero"
         id="g203">
        <g
           clip-path="url(#clip10)"
           clip-rule="nonzero"
           id="g201">
          <path
             style="fill:url(#pattern1);fill-rule:nonzero;stroke:none"
             d="M 0,1200 H 1600 V 919.17187 H 0 Z m 0,0"
             id="path199" />
        </g>
      </g>
    </g>
  </defs>
  <g
     id="surface3915"
     transform="translate(-242.94114,-198.71847)">
    <g
       id="g835"
       transform="rotate(7.4234602,-1004.1664,1853.22)">
      <path
         style="fill:#70c5d4;fill-opacity:1;fill-rule:nonzero;stroke:none"
         d="M 262.84766,46.152344 287.06641,20.6875 C 126.8125,13.984375 73.984375,138.39453 73.984375,138.39453 l 7.226563,5.44531 C 138.42969,52 262.84766,46.152344 262.84766,46.152344"
         id="path222" />
      <path
         style="fill:#c5e6ee;fill-opacity:1;fill-rule:nonzero;stroke:none"
         d="m 90.96875,149.98047 8.996094,6.78125 C 148.98828,106.03906 304.12891,102.60156 304.12891,102.60156 L 270.94141,77.746094 C 169.32422,81.636719 109.54688,131.67578 90.96875,149.98047"
         id="path224" />
      <path
         style="fill:#a8dce3;fill-opacity:1;fill-rule:nonzero;stroke:none"
         d="m 262.69531,45.429688 c 0,0 -124.41406,5.84375 -181.636716,97.683592 l 10.0625,7.58984 C 109.69531,132.40234 169.47656,82.359375 271.09375,78.472656 l 23.51953,-21.539062 z m 0,0"
         id="path226" />
      <path
         style="fill:#ffff5c;fill-opacity:1;fill-rule:nonzero;stroke:none"
         d="m 79.363281,65.386719 23.105469,29.542969 c 0.48047,0.609374 1.22656,0.945312 2,0.898437 l 37.43359,-2.289063 c 1.94922,-0.117187 3.1875,2.046876 2.09766,3.667969 L 123.04688,128.3125 c -0.4336,0.64062 -0.52344,1.45703 -0.23829,2.17969 l 13.7461,34.89453 c 0.71484,1.8164 -0.96485,3.66406 -2.83985,3.125 L 97.65625,158.19531 c -0.746094,-0.21094 -1.546875,-0.043 -2.144531,0.44922 L 66.570312,182.5 c -1.507812,1.24219 -3.78125,0.21484 -3.851562,-1.73438 l -1.332031,-37.48046 c -0.02734,-0.77344 -0.433594,-1.48829 -1.089844,-1.90235 L 28.667969,121.23047 c -1.648438,-1.05078 -1.375,-3.53125 0.460937,-4.19922 l 35.234375,-12.84766 c 0.726563,-0.26562 1.277344,-0.875 1.472657,-1.625 L 75.226562,66.25 c 0.488282,-1.890625 2.933594,-2.398438 4.136719,-0.863281"
         id="path228" />
    </g>
  </g>
</svg>
